<?xml version="1.0" encoding="utf-8"?>
<!-- Generator: Adobe Illustrator 19.1.0, SVG Export Plug-In . SVG Version: 6.00 Build 0)  -->
<svg version="1.1"
	 id="svg2" inkscape:output_extension="org.inkscape.output.svg.inkscape" sodipodi:version="0.32" sodipodi:docname="Minnesota.svg" inkscape:version="0.46" xmlns:svg="http://www.w3.org/2000/svg" xmlns:sodipodi="http://sodipodi.sourceforge.net/DTD/sodipodi-0.dtd" xmlns:rdf="http://www.w3.org/1999/02/22-rdf-syntax-ns#" xmlns:inkscape="http://www.inkscape.org/namespaces/inkscape" xmlns:cc="http://creativecommons.org/ns#" xmlns:dc="http://purl.org/dc/elements/1.1/"
	 xmlns="http://www.w3.org/2000/svg" xmlns:xlink="http://www.w3.org/1999/xlink" x="0px" y="0px" viewBox="173 -197.4 358 407.4"
	 style="enable-background:new 173 -197.4 358 407.4;" xml:space="preserve">
<style type="text/css">
	.st0{fill:#CCCCCC;stroke:#000000;stroke-width:0.5;stroke-linecap:square;stroke-linejoin:bevel;}
</style>
<defs>
	
	
		<inkscape:perspective  sodipodi:type="inkscape:persp3d" inkscape:vp_x="0 : 526.18109 : 1" inkscape:vp_y="0 : 1000 : 0" inkscape:vp_z="744.09448 : 526.18109 : 1" inkscape:persp3d-origin="372.04724 : 350.78739 : 1" id="perspective10">
		</inkscape:perspective>
	
		<inkscape:perspective  sodipodi:type="inkscape:persp3d" inkscape:vp_x="0 : 526.18109 : 1" inkscape:vp_y="0 : 1000 : 0" inkscape:vp_z="744.09448 : 526.18109 : 1" inkscape:persp3d-origin="372.04724 : 350.78739 : 1" id="perspective2482">
		</inkscape:perspective>
	
		<inkscape:perspective  sodipodi:type="inkscape:persp3d" inkscape:vp_x="0 : 371.99942 : 1" inkscape:vp_y="0 : 1000 : 0" inkscape:vp_z="1052.1 : 371.99942 : 1" inkscape:persp3d-origin="526.04999 : 247.99961 : 1" id="perspective357">
		</inkscape:perspective>
	
		<inkscape:perspective  sodipodi:type="inkscape:persp3d" inkscape:vp_x="0 : 371.99942 : 1" inkscape:vp_y="0 : 1000 : 0" inkscape:vp_z="1052.1 : 371.99942 : 1" inkscape:persp3d-origin="526.04999 : 247.99961 : 1" id="perspective73">
		</inkscape:perspective>
</defs>
<sodipodi:namedview  inkscape:document-units="px" inkscape:current-layer="layer1" inkscape:window-y="14" inkscape:window-x="883" inkscape:window-height="1000" inkscape:window-width="781" inkscape:pageshadow="2" inkscape:pageopacity="0.0" id="base" guidetolerance="10" gridtolerance="10000" showgrid="false" pagecolor="#ffffff" bordercolor="#666666" inkscape:zoom="6.4888505" borderopacity="1.0" objecttolerance="10" inkscape:cy="91.842153" inkscape:cx="213.77053">
	</sodipodi:namedview>
<g id="layer1" transform="translate(-12.288708,5.8728403)" inkscape:label="Layer 1" inkscape:groupmode="layer">
	<path id="District_1" class="st0" d="M439.2,155c-3.6,0.1-7.3,0.1-10.9,0.2l0.1,6l-11.9,0.1l-0.1-5.9l-41.7,0.4l-0.1-11.9l-5.8,0
		l-0.1-6l-0.5,0l0-0.9l-0.5,0c-0.6,0-0.3-0.5-0.9-0.5l-1.6,0l0-0.5l-0.6,0.1l0-0.5l0.5,0l0-2.5l-0.3,0l-0.1-1l-27.3,0.2
		c0,0.1-0.1,0.2,0,0.3c0.2,0.2,0.4,0.4,0.6,0.5c0.3,0,0.5,0.2,0.6,0.4c0.1,0.2,0.1,0.4,0,0.7c0,0.5,0,1.1-0.4,1.5
		c-0.2,0.2-0.3,0.5-0.3,0.8c0,0.3-0.1,0.6-0.4,0.7c-0.2-0.2-0.4-0.2-0.6-0.1c-0.2,0.1-0.3,0.3-0.1,0.5c0.1,0.3-0.3,0.5-0.5,0.6
		l-42.3-0.3c-0.1,0-0.1-0.1-0.1-0.1c-0.1-0.1-0.2-0.1-0.2-0.2c-0.1-0.2-0.3-0.4-0.5-0.7c-0.1-0.2-0.2-0.3-0.3-0.5
		c-0.1-0.1-0.1-0.2-0.3-0.3c-0.2-0.1-0.4-0.2-0.6-0.3c-0.1-0.1-0.3-0.2-0.4-0.3c-0.1-0.1-0.2-0.2-0.3-0.2c-0.3,0-0.5,0-0.8-0.1
		c-0.1,0-0.2-0.1-0.3-0.2l-0.3,14.9l-11.9-0.1l0,6l-0.7,0l0,1l-2,0l0,2.9l-0.9,0.1l0,2l4.1,0l-0.3,18c-11.4,0-22.7-0.3-34-0.6
		c-11.1-0.3-22.2-0.7-33.4-1l0,0.1l-0.1,3.1l0,0.9l-0.1,2l-0.1,5l0,1l-0.1,4.5l0,0.2l0,1.3l0,0l0,0l0,0.1l0,0.4l-0.2,5.5l0.3,0
		l4.8,0.2l0.9,0l0.1,0l1.9,0.1l0.9,0l1.1,0l1.9,0l0.3,0l0.5,0l0,0l1.3,0l3.8,0.1l2.2,0.1l1.8,0.1l1,0l0.9,0l0.1,0l2.3,0.1l3.6,0.1
		l1.3,0l0.7,0l0.3,0l3.7,0.1l0,0l2.3,0l0.5,0l1.8,0l0.3,0l1,0l2.5,0l3,0.1l0.5,0l0.9,0l0.6,0l1,0l0,0l1,0l2.3,0l0.6,0l0,0l2,0l0.5,0
		l2.8,0l0.9,0l0,0l0.3,0l1.5,0l1.7,0l0,0l0.6,0l0,0l0.6,0l0.2,0l1.4,0l0.4,0l1,0l2,0l0,0l1,0l0.1,0l0.9,0l1,0l1,0l1,0l1,0l1,0l0,0
		l1.3,0l0.7,0l0.1,0l0.6,0l0.1,0l0.2,0l0.5,0l0.2,0l2.1,0l3.2,0l2,0l0.8,0l3.1,0l0.1,0l2.4,0l0.3,0l3.4,0l1.1,0l1.2,0l0.2,0l2.6,0
		l0.7,0l0.5,0l2.2,0l3.8,0l2.1,0l2.9,0l1,0l0.9,0l0.1,0l0.1,0l0.4,0l0.2,0l0.1,0l0.2,0l0.5,0l0.5,0l3,0l1.9,0l4.1,0l1.8,0l2.8,0
		l0.1,0l1.3,0l1.7,0l0.9,0l0.4,0l0.2,0l0.3,0l2.5,0l1.6,0l2,0l0.9,0l1.3,0l0.2,0l1.5,0l0,0l0.5,0l0.3,0l0.2,0l0.3,0l0.2,0l2,0l1,0
		l0.5,0l0,0l0.9,0l1.3,0l2.7,0l0.5,0l0.9,0l0.5,0l1.6,0l0.2,0l1.2,0l1.6,0l1,0l0.4,0l2,0l2.6,0l1.3,0l0.8,0l1.4,0l1.5,0l1,0l0.6,0
		l0.6,0l0.1,0l0.7,0l1,0l2,0l1,0l0.1,0l0.9,0l1.9-0.1l2.3,0l0.7,0l0.2,0l0.8,0l1,0l0.2,0l4-0.1l0.8,0l0.7,0l3.7-0.1l0.8,0l0.7,0
		l1.3,0l0.2,0l0.9,0l0.6,0l0.3,0l0.7,0l1.3,0l0.1,0l0.7,0l0.3,0l1.5,0l0.1,0l3.4-0.1l0.5,0l0,0l1,0l3.8-0.1l0.7,0l0,0l0.5,0l3.5-0.1
		l1.6,0l0.3,0l0.1,0l0.1,0l0.8,0l0,0l0.4,0l3.5-0.1l1,0l0,0l1.3,0l0.9,0l0.1,0l0.7,0l0.6,0l0.1,0l0.8,0l1.2,0l0.1,0l0.2,0l0.1,0
		l0.1,0l1.5,0l1.5,0l0.6,0l0.3,0l0.3,0l0.3,0l0.2,0l0.1,0l0.4,0l0.3,0l0.2,0l0,0l0.1,0l0.2,0l1,0l2,0l0.5,0l0.4,0l2.2-0.1l1.3,0l0,0
		l0.2,0l0.8,0l0.2,0l2.2-0.1l1,0l0.3,0l0,0l0.1,0l3.9-0.1l0.5,0l1,0l0.4,0l0.4,0l1.4,0l0-0.5l0-0.3l-0.1-0.1l-0.2-0.2l-0.1,0
		l-0.1-0.1l-0.3-0.2l-0.1-0.1l-0.2-0.6L471,199l-0.1-0.4l0-0.2l0-0.1l0,0l0.1-0.2l0-0.1l0.3-0.5l0.1-0.2l0-0.5l0-0.1l0-0.1l0,0
		l0-0.4l-0.1-0.1l-0.1-0.1l-0.1-0.1l-0.1-0.1l-0.1-0.1l-0.2-0.2l0,0l-0.3-0.3l-0.1-0.1l-0.1-0.1l-0.2-0.1l-0.2-0.2l-0.2-0.2
		l-0.2-0.4l0-0.8l0.2-0.8l0-0.2l-0.1-0.2l0-0.1l0-0.2l-0.1-0.1l-0.3-0.3l-0.1-0.1l-0.1-0.6l0-0.2l0-0.1l0-0.6l0.2-1.1l0-0.2l-0.1-1
		l0.1-0.3l0.2-0.4l0.1-0.3l0.1-0.2l0.1-0.3l0-0.1l0-0.1l0-0.2l0-0.8l0.4-1.4l0.1-0.5l0-0.1l0-0.1l-0.5-0.6l-0.3-0.4l-0.1-0.1
		l-0.1-0.1l-0.1-0.5l-0.1-0.3l-0.3-0.7l0-0.3l-0.2-0.4l0-0.3l0-0.2l0-0.3l-0.2-0.4l-0.1-0.3l-0.4-0.3l0,0l-0.3-0.1l-0.1-0.1l0-0.1
		l0,0l-0.1-0.1l0,0l-0.5-0.5l-0.1-0.6l-0.1-0.2l-0.1-0.3l-0.3-0.4l0-0.1l-0.1,0l-0.3-0.3l-0.5-0.3l-0.1,0l0,0l-0.1-0.2l-0.1-0.1
		l0-0.1l0-0.1l-0.2-0.4l-0.1-0.1l-0.2-0.2l-0.3-0.1l0-0.1l0,0l-0.3-0.6l-0.1-0.5l0-0.1l0,0l0,0l-0.1-0.1l0-0.1l-0.4-0.4l-0.5-0.6
		l0,0l-0.1-0.1l-0.4-0.3l-0.5-0.3l-0.1-0.1l-0.2-0.4l-0.1-0.2l-0.6-0.6l-0.1-0.1l0-0.1l0-0.2l-0.2-0.4l-0.1-0.2l-0.1-0.1l-0.1-0.1
		l-0.1,0l-0.1-0.1l0,0l-0.3-0.1l-0.2-0.1l-0.3-0.1l-0.3-0.2l-0.2,0l-0.5,0.1l-0.1,0l0,0l-0.7-0.3l-0.4-0.3l-0.2-0.1l-0.9-0.2l-0.5,0
		l-0.7,0l-0.6-0.2l-0.6-0.1l-0.1,0l-0.3,0l-0.1,0l-0.1,0l-0.2-0.1l-0.1,0l-0.2-0.1l-0.1-0.1l-0.2-0.1l-0.1,0l0-0.1l-0.1-0.1
		l-0.1-0.1l-0.1-0.2l-0.1-0.1l0-0.1l0,0l0,0l0,0l-0.1-0.1l-0.1-0.1l-0.2-0.1l-0.3-0.1l-0.2,0l-0.2-0.1l0,0l-0.1-0.1l-0.2-0.2
		l-0.1-0.1l-0.1-0.1l0,0l0,0l-0.1,0l-0.1,0.1l-0.1,0l-0.1,0l-0.1,0l-0.2-0.3l0,0l-0.1-0.1l-0.1-0.1l-0.1-0.1l-0.1-0.2l-0.2-0.5
		l-0.1-0.3l-0.1-0.1l-0.1-0.1l-0.1-0.1l-0.1-0.1l-0.2-0.2l-0.2-0.2l-0.1,0l-0.2-0.1l-0.3,0l-0.2,0l-0.6-0.3l0,0l0-0.1l0-0.4
		l-0.1-0.4l0-0.2l-0.5-0.6l0,0l-0.1-0.1l0,0l-0.4-0.1l-0.1,0l-0.1,0l-0.7-0.1l-0.1,0l-0.1,0l-0.1-0.1l-0.1,0l-0.3-0.2l-0.3-0.2
		l-0.3-0.3l-1.1-0.4l-0.6-0.4l-0.5-0.3l-0.6-1l-0.1-0.1l0,0l-0.3-0.1l-0.2-0.1l-0.2-0.1l-0.1-0.1l-0.2-0.2L439.2,155L439.2,155z"/>
	<path id="District_2" class="st0" d="M393.5,109.8l-10.5,0.1l0,0.9c-0.2,0.1-0.4,0-0.6,0.1c-0.1,0.1-0.2,0.1-0.4,0.1
		c-0.1,0-0.3-0.1-0.3-0.2c0.1-0.4,0.1-0.7,0-1c-0.1-0.5-0.2-0.9-0.4-1.5c0-0.2-0.1-0.2-0.3-0.4c-0.1-0.2-0.5-0.4-0.6-0.6
		c-0.3-0.3-0.5-0.5-0.6-1c-0.1-0.2-0.1-0.4-0.2-0.5l-3.8,0c-0.1,0.3-0.1,0.6-0.2,0.8c-0.1,0.3-0.3,0.5-0.6,0.6
		c-0.4,0.5-0.8,0.7-1.4,0.6c0,0,0,0,0,0c0,0.1,0.1,0.1,0.1,0.2l0,0c0-0.1-0.1-0.1-0.1-0.2c-0.3,0.1-0.4,0.3-0.4,0.6
		c-0.1,0.3-0.1,0.5-0.4,0.7c-0.2,0.2-0.2,0.4-0.2,0.6l0,0c0,0,0,0,0,0.1c0,0.3,0,0.5-0.1,0.7c-0.2,0.1-0.3,0.4-0.4,0.6
		s-0.2,0.4-0.5,0.3c-0.2,0.3-0.3,0.8-0.7,1c-0.5,0.3-0.9,0.7-1.3,1.1c-0.6,0.1-0.9,0.4-1.5,0.7c-0.5,0.2-0.7,0.5-1.3,0.5
		c-0.6,0-0.6,0.4-0.8,0.4c-0.2,0-0.4-0.4-0.7-0.3c-0.1,0-0.1,0.3-0.3,0.4c-0.1,0-0.3-0.3-0.4-0.2c-0.3,0.1-0.4,0.3-0.7,0.3
		c-0.2-0.1-0.2-0.4-0.2-0.6c0-0.2-0.1-0.4-0.5-0.3c-0.5-0.2-0.9-0.7-1.5-0.8c-0.2-0.1-0.5-0.2-0.8-0.1s-0.4,0.2-0.4,0.5
		c-0.2,0.3-0.4,0.2-0.6,0.1c-0.2-0.1-0.5-0.3-0.7-0.2c-0.2,0-0.5-0.1-0.8-0.1c-0.3,0-0.5-0.1-0.7,0.2c-0.5,0.2-1,0.1-1.5,0
		c-0.3-0.1-0.3,0.2-0.3,0.4c0,0.3,0,0.5-0.3,0.4c-0.3,0-0.6-0.1-0.9-0.1c-0.3,0-0.6,0-0.8,0.2c-0.2,0.1-0.2,0.3-0.2,0.5
		c0,0.2-0.1,0.3-0.3,0.1c-0.3-0.1-0.4,0-0.4,0.1c0,0.1,0.1,0.3,0.2,0.4l0,0c0,0,0,0.1,0.1,0.1c0,0.4-0.2,0.5-0.5,0.5
		c-0.3,0-0.6,0-0.8,0.3c-0.2,0.2,0.1,0.4,0.3,0.6s0.4,0.3,0.1,0.5c-0.2-0.2-0.5-0.1-0.7,0s-0.3,0.4-0.3,0.7c0,0.2,0,0.5,0,0.7
		c0,0.2,0,0.4,0.3,0.5c-0.1,0.3,0.1,0.5,0.1,0.8c0.1,0.2,0.1,0.5-0.2,0.7c0,0.3-0.3,0.4-0.6,0.4s-0.6,0-0.7,0.3
		c-0.2,0-0.5-0.1-0.8-0.1s-0.5,0.1-0.6,0.4c-0.4,0.4-0.4,1.1-0.9,1.3c-0.1,0.1-0.5,0-0.8,0c-0.3,0-0.4,0.1-0.3,0.4
		c0.1,0.2,0.2,0.3,0.1,0.4c0,0.1-0.2,0.1-0.4,0.1c-0.3,0-0.4,0.2-0.5,0.4c-0.1,0.2-0.2,0.4-0.6,0.3c-0.2,0-0.4,0.2-0.5,0.4
		c-0.1,0.1-0.3,0.1-0.5,0.1l0,0c0,0-0.1,0-0.1,0c-0.1,0.1-0.3,0.4-0.5,0.5c-0.2,0.1-0.4,0.2-0.6-0.1c-0.3-0.2-0.6-0.2-0.8-0.1
		c-0.3,0.1-0.5,0.4-0.5,0.7c-0.2,0.3-0.6,0.2-0.9,0.1c-0.2,0-0.3,0-0.4,0c-0.1,0-0.2,0.2-0.2,0.4c0,0.2,0,0.5-0.1,0.6
		c-0.1,0.2-0.3,0.2-0.5,0.1c-0.3-0.1-0.7,0-1,0.2c-0.3,0.2-0.5,0.4-0.6,0.8c0.1,0.6,0.2,1.2,0.2,1.8c0.1,0.3-0.1,0.5-0.3,0.7
		c-0.2,0.2-0.4,0.3-0.6,0.5c-0.1,0.2,0,0.3,0,0.5l27.3-0.2l0.1,1l0.3,0l0,2.5l-0.5,0l0,0.5l0.6-0.1l0,0.5l1.6,0
		c0.6,0,0.3,0.5,0.9,0.5l0.5,0l0,0.9l0.5,0l0.1,6l5.8,0l0.1,11.9l41.7-0.4l0.1,5.9l11.9-0.1l-0.1-6c3.6-0.1,7.3-0.1,10.9-0.2l0,0
		l-0.3-0.2l-0.4-0.2l-0.1-0.1l0-0.1l-0.1-0.1l0-0.1l0-0.3l0-0.1l-0.1-0.2l-0.1-0.2l-0.5-0.7l-0.2-0.3l0-0.3l0.2-0.8l0-0.1l0,0l0-0.2
		l0,0l-0.1-0.2l-0.1-0.1l-0.1-0.1l-0.2-0.2l-0.1-0.1l0,0l0,0l0-0.1l0-0.5l0-0.1l0,0l-0.1-0.1l0,0l0,0l-0.2-0.1l-0.1,0l-0.1-0.1
		l-0.1,0l-0.6-0.3l-0.1-0.1l-0.1-0.2l0,0l0-0.1l0-0.1l0-0.1l0,0l0,0l0-0.1l0-0.1l0.1-0.3l0.3-0.5l0-0.2l0-0.1l-0.1-0.5l-0.1-0.3
		l-0.1-0.2l-0.3-0.5l-0.1-0.1l-0.4-0.2l-0.3-0.1l-0.4-0.5l-0.2-0.3l-0.3-0.4l-0.2-0.2l-0.1-0.1l-0.1-0.1l0,0l-0.1-0.1l-0.1,0
		l-0.1-0.1l0,0l0,0l0,0l-0.1,0l0,0l-0.3,0l-0.2,0l-0.3-0.2l-0.3-0.2l-0.1-0.1l-0.2-0.1l-0.1,0l-0.5-0.1l-0.1,0l-0.1,0l-0.1,0
		l-0.8-0.4l0,0l-0.4-0.3l0,0l0,0l0,0l-0.1-0.1l-0.2-0.3l-0.1,0l-0.1-0.1l-0.2-0.1l-0.5,0l-0.3-0.1l-0.2-0.2l-0.2-0.1l-0.4-0.2
		l-0.1,0l-0.2,0l-0.4-0.1l0,0l-0.1-0.1l-0.1,0l0,0l-0.3-0.3l-0.2-0.1l-0.7-0.1l-1.1-0.1l-0.1,0l-0.3-0.1l-1-0.3l-0.3-0.1l-1-0.3
		l-0.1,0l-0.2-0.1l-0.6-0.3l-0.2-0.3l-0.1-0.2l-0.1-0.2l-0.2-0.2l-0.2-0.2l-0.7-0.4l-0.7-0.6l-0.3-0.3l-0.3-0.4l-0.1-0.1l-0.1-0.2
		l-0.1-0.2l-0.1-0.1l-0.1-0.1l0-0.1l-0.1-0.2l-0.1-0.3l0-0.1l0-0.1l0-0.1l0-0.1l0-0.8l0-0.2l0-0.1l-0.2-0.3l-0.1-0.3l-0.1-0.5l0,0
		l0-0.1l-0.1-0.2l0,0l0,0l0,0l0,0l0,0l-0.1-0.1l0-0.1l0,0l-0.4-0.3l-0.3-0.2l0,0l-0.6-0.2l-0.5-0.1l-0.2,0l-0.3,0l-0.3,0l-0.7,0.1
		l0,0l-0.3,0l-0.1,0l-0.2,0l-0.2,0l-0.4-0.1l-0.1,0l-0.2-0.1l-0.3-0.2l-0.2-0.1l-0.1,0l-0.4,0.2l-0.7,0.1l0,0l-0.3-0.1l-0.4-0.1
		l-0.2-0.1l-0.4-0.1l0,0l-0.1,0l-0.1,0l-0.2,0.1l-0.1,0l0,0l0,0l0,0l0,0l0,0l-0.1,0l0,0l-0.1,0l0,0l-0.2-0.1l-0.3-0.1l-0.1,0
		l-0.1-0.1l-0.3-0.2l-0.1,0l-0.3,0.1l-0.3,0.2l-0.1,0.1l-0.1,0.1l0,0l0,0l0,0l-0.1,0l-0.1,0l-0.1,0l0,0l0,0l0,0l0,0l0,0l-0.1,0l0,0
		l0,0l-0.1-0.2l0-0.1l0.1-0.2l0-0.1l0-0.2L404,128l-0.3-0.5l0,0l-0.1,0l0,0l0,0l-0.1,0l-0.1,0l0,0l0,0l0,0l-0.2,0l-0.1,0.1l-0.1,0.2
		l-0.2,0.1l-0.1,0l-0.1-0.1l-0.1,0l0,0l-0.1-0.3l-0.6-0.4l-0.2,0l-0.4,0l-0.2-0.1l0,0l-0.1-0.1l-0.1,0l0,0l-0.1-0.1l0-0.1l0,0l0-0.1
		l0-0.1l0-0.2l0.2-0.4l0-0.3L401,125l-0.5-0.7l-1.2-0.6l-0.3-0.2l-0.2-0.2l-0.2-0.3l-0.1-0.1l-0.7-0.9l-0.4-0.4l0,0l-0.1-0.1
		l-0.1-0.2l-0.1-0.1l-0.6-0.5l-1-0.9l-0.2-0.2l-0.6-0.3l-0.2,0l-0.2-0.1l-0.4-0.4l-0.5-0.3l-0.1-0.1l-0.4-0.2l-0.1,0l0,0l0,0
		l-0.7-0.5l0-0.1l0-0.1l0,0l0,0l0,0l-0.1-0.1l0-0.1l0-0.5l0.1-0.4l0-0.2l0.2-0.6l0.2-0.3l0.4-0.4l0.1-0.3l0.1-0.4l0.1-0.8l0-0.1
		l0-0.1l0-0.1l0,0l0.4-0.6l0-0.1l0-0.2l0,0l0-0.1l0,0l0.1-0.2l0,0l0.1-0.1l0.1-0.1l0-0.1l0-0.1l0,0l0-0.2l-0.2-0.8l0-0.1l0-0.3
		L393.5,109.8z"/>
	<path id="District_3" class="st0" d="M353,115.9c-0.1-0.1-0.1-0.3-0.2-0.4c0-0.1,0-0.2,0.4-0.1c0.3,0.2,0.3,0.1,0.3-0.1
		c0-0.2,0-0.4,0.2-0.5c0.2-0.2,0.5-0.2,0.8-0.2c0.3,0,0.6,0.1,0.9,0.1c0.3,0.1,0.3-0.2,0.3-0.4c0-0.3,0-0.5,0.3-0.4
		c0.5,0.2,1.1,0.3,1.5,0c0.2-0.2,0.4-0.2,0.7-0.2c0.3,0,0.5,0.1,0.8,0.1c0.2-0.1,0.5,0.1,0.7,0.2c0.2,0.1,0.4,0.2,0.6-0.1
		c0-0.4,0.1-0.5,0.4-0.5s0.5,0,0.8,0.1c0.6,0.1,1,0.6,1.5,0.8c0.4-0.1,0.4,0,0.5,0.3c0,0.2,0,0.5,0.2,0.6c0.3,0,0.5-0.2,0.7-0.3
		c0.1,0,0.3,0.3,0.4,0.2c0.1,0,0.2-0.3,0.3-0.4c0.2-0.1,0.5,0.3,0.7,0.3c0.2,0,0.2-0.4,0.8-0.4c0.7,0.1,0.9-0.2,1.3-0.5
		c0.6-0.3,0.9-0.6,1.5-0.7c0.4-0.4,0.8-0.8,1.3-1.1c0.4-0.2,0.5-0.7,0.7-1c0.3,0.1,0.4-0.1,0.5-0.3s0.2-0.5,0.4-0.6
		c0.2-0.2,0.2-0.5,0.1-0.7c0,0,0,0,0-0.1c-2,0-4,0-6,0l0-1.9l-0.2,0c-0.1,0.1-0.3,0.2-0.5,0.2c-0.2,0-0.5,0-0.8-0.2l0-1.9l-0.3-0.2
		l-2.2,0l0.1,1l-1.1,0l0-0.8c-0.1-0.1-0.2-0.2-0.2-0.4c0-0.2,0-0.3,0-0.5c0-0.1,0.1-0.2,0.2-0.3c0.1-0.1,0.2-0.2,0.2-0.3
		c0-0.1-0.1-0.1-0.1-0.2c-0.1-0.1-0.1-0.2-0.1-0.3c0-0.1,0.2-0.2,0.4-0.2c0.1,0,0.2,0.1,0.2,0.2c0,0.1,0.1,0.2,0.1,0.3
		c0.1,0.1,0.2,0.1,0.3,0.1c0.1,0,0.1,0,0.2-0.1c0.1-0.1,0.1-0.2,0.1-0.3c0-0.2,0-0.3,0-0.5c0-0.2,0.1-0.4,0-0.6
		c0-0.1-0.1-0.2-0.2-0.3c0,0-0.1-0.1-0.1-0.2c0-0.1,0-0.2,0-0.3c0-0.1-0.1-0.1-0.1-0.2c-0.1,0-0.1-0.1-0.1-0.2
		c0-0.1,0.1-0.2,0.2-0.2c0.1,0,0.1,0,0.2,0c0,0,0,0,0-0.1l0-6l2.5,0l-0.1-1.4l3.4,0l0.1-1.1c0-0.3-0.2-0.4-0.4-0.5
		c-0.2-0.1-0.4-0.3-0.5-0.7l0.8,0l-0.1-0.4l0.7,0l0-6l-4.7,0c-0.2-0.1-0.2,0.2-0.3,0.4c-0.1,0.2,0.3,0.4,0.1,0.6
		c-0.2,0.1-0.1,0.3-0.1,0.5c-0.1,0.1-0.3,0.2-0.3,0.4c0.1,0.2,0,0.5-0.3,0.4c-0.2-0.2-0.4-0.3-0.6-0.5c-0.1-0.2-0.3-0.3-0.5-0.4
		c-0.1-0.2-0.4-0.1-0.5-0.3c0-0.2-0.2-0.5-0.4-0.6c-0.2-0.3-0.4-0.6-0.7-0.7c-0.2-0.1-0.3,0.1-0.5,0.1c-0.2,0-0.4-0.3-0.6-0.3
		c-0.2,0-0.4-0.2-0.6-0.3c-0.2-0.1-0.3-0.1-0.5-0.1c-0.2,0-0.5,0-0.6-0.2c-0.1-0.2-0.2-0.3-0.3-0.5c-0.1-0.2-0.2-0.5-0.5-0.6
		c-0.2,0-0.4,0-0.6-0.1c-0.1-0.1-0.2,0-0.1,0.1c0.2,0.2-0.1,0.3-0.1,0.5c0.1,0.2-0.2,0.4-0.2,0.6c0.1,0.1-0.1,0.3-0.2,0.2
		c-0.2-0.1-0.2-0.3-0.3-0.5c-0.2-0.1-0.4,0-0.5,0.1c-0.1,0.1-0.3,0.2-0.5,0.2c-0.2,0.1-0.3,0.3-0.5,0.5c-0.2,0.1-0.5,0-0.6,0.2
		c-0.1,0.1-0.2,0.2-0.4,0.2c-0.1,0-0.3,0-0.3,0.2c0,0.1,0.1,0.4-0.1,0.4c-0.2,0.1-0.4-0.2-0.6-0.2c-0.1,0.1-0.3,0.1-0.5,0.1
		c-0.1,0-0.4-0.1-0.3,0.1c0,0.2-0.2,0.5-0.3,0.3c-0.1-0.2,0-0.5-0.3-0.5c-0.2,0-0.3,0.2-0.4,0.3c0,0.1,0,0.4-0.2,0.4
		c-0.2,0-0.4,0.2-0.5,0.3c-0.1,0.2,0.1,0.4,0.2,0.6c0.1,0.2,0.4,0.4,0.5,0.6c0.1,0.2,0.4,0.2,0.6,0.2l0,1.4l-0.2,0l0,0.5l-2,0
		c0,0,0-0.1,0-0.1c0-0.1,0-0.2-0.1-0.2c-0.1,0-0.2,0.1-0.2,0.2c0,0.1-0.2,0.2-0.3,0.3c-0.1,0.1-0.4,0.1-0.5,0.3c0,0.2,0,0.3-0.1,0.5
		c0,0.2-0.2,0.3-0.3,0.4c-0.1,0.2-0.2,0.3-0.3,0.4c-0.1,0.2-0.3,0.4-0.3,0.7c-0.1,0.3-0.2,0.7-0.3,1c-0.1,0.2,0,0.4,0,0.7
		c0,0.1-0.1,0.2-0.2,0.3c-0.1,0.1-0.3,0.1-0.4,0.2c-0.2,0.1-0.5,0-0.7-0.1c-0.1-0.1-0.3,0-0.3,0.1c0,0.1,0,0.3,0,0.4
		c-0.1,0.4-0.1,0.7-0.3,1.1l-0.1,14.6l0.3,0.2l0,0.6l-0.3,0l0,2.1l4.3-0.1l0,1l1.8,0l0,1L353,115.9z"/>
	<path id="District_4" class="st0" d="M394.4,91.7l-23.5,0.1L371,97l0.4,0l0,0.4l0.6,0l0,6.1c0.1,0.2,0.2,0.3,0.3,0.5
		c0.1,0.2,0.1,0.5,0,0.7c0.1,0.4,0.1,0.3,0.1,0.8c0,0.2,0,0.8,0,1c0,0.3,0.3,0.4,0.4,0.5c0,0.1,0.1,0.4,0,0.5
		c0.1,0.2,0.4,0.2,0.6,0.3c0.1,0,0.1,0.1,0.1,0.2c0.6,0,1-0.1,1.4-0.6c0.3-0.1,0.5-0.4,0.6-0.6c0.1-0.3,0.2-0.5,0.2-0.8l3.8,0
		c0.1,0.1,0.2,0.3,0.2,0.5c0.2,0.4,0.3,0.6,0.6,1c0.2,0.1,0.5,0.4,0.6,0.6c0.1,0.2,0.2,0.2,0.3,0.4c0.1,0.6,0.2,1,0.4,1.5
		c0.1,0.3,0.1,0.6,0,1c0,0.1,0.2,0.2,0.3,0.2c0.1,0,0.3,0,0.4-0.1c0.2-0.1,0.4,0,0.6-0.1l0-0.9l10.5-0.1l0,0l0.1-0.3l0.2-0.4l0-0.1
		l-0.1-0.1l-0.3-0.5l-0.2-0.5l0-0.2l0-0.2l0-0.1l0-0.2l0-0.1l0.3-0.2l0.3-0.2l0.1-0.1l0-0.1l0-0.1l0-0.1l0,0l0.1-0.5l0.2-0.8
		l0.1-0.5l0-0.3l0-0.1l0-0.1l0-0.3l-0.1-0.1l-0.1-0.4l-0.2-0.4l-0.1-0.2l-0.3-0.2l0,0l0,0l0-0.1l-0.1-0.2l0-0.1l0-0.3l0-0.1l0-0.2
		l0.1-0.3l-0.1-0.3l0-0.2l0-0.5l0-0.2l0.1-0.2l0-0.1l0,0l0.1-0.3l0-0.1l0.1-0.2l0-0.1l0-0.1l0-0.1l0-0.1l-0.1-0.3l-0.3-0.3l-0.1-0.1
		l-0.2-0.2l-0.1-0.1l-0.1,0l-0.3-0.2l-0.1-0.1l-0.3-0.2l-0.2-0.2l-0.1-0.1l-0.2-0.4l0,0l0,0l0-0.2l0-0.3l0-0.1l0-0.1l0,0l0-0.1
		l0.4-0.6l0,0l0,0l0,0l0,0l0.1-0.1l0.1-0.1l0.5-0.4l0.4-0.5l0.5-0.5l0.4-0.3l0.1-0.1l0.2-0.4l0-0.2l0-0.1l-0.1-0.1l-0.1-0.1
		L394.4,91.7z"/>
	<path id="District_5" class="st0" d="M369,91.9l-0.7,0l0.1,0.4l-0.8,0c0,0.4,0.2,0.6,0.5,0.7c0.2,0.1,0.4,0.2,0.4,0.5l-0.1,1.1
		l-3.4,0L365,96l-2.5,0l0,6c0,0,0,0.1,0,0.1c-0.1,0-0.1,0-0.2,0c-0.1,0-0.2,0.1-0.2,0.2c0,0.1,0.1,0.1,0.1,0.2
		c0.1,0,0.1,0.1,0.1,0.2c0,0.1,0,0.2,0,0.3c0,0.1,0,0.1,0.1,0.2c0.1,0.1,0.2,0.1,0.2,0.3c0,0.2-0.1,0.4,0,0.6c0,0.2,0,0.3,0,0.5
		c0,0.1,0,0.2-0.1,0.3c0,0.1-0.1,0.1-0.2,0.1c-0.1,0-0.2,0-0.3-0.1c0-0.1,0-0.2-0.1-0.3c0-0.1-0.1-0.2-0.2-0.2
		c-0.1-0.1-0.3,0-0.4,0.2c0,0.1,0,0.2,0.1,0.3c0.1,0.1,0.1,0.1,0.1,0.2c0,0.1-0.1,0.3-0.2,0.3c-0.1,0-0.2,0.2-0.2,0.3
		c0,0.2,0,0.3,0,0.5c0,0.2,0.1,0.3,0.2,0.4l0,0.8l1.1,0l-0.1-1l2.2,0l0.3,0.2l0,1.9c0.3,0.2,0.6,0.3,0.8,0.2c0.2,0,0.5-0.1,0.5-0.2
		l0.2,0l0,1.9c2,0,4,0,6,0c0-0.2,0-0.5,0.2-0.6c0.3-0.1,0.3-0.4,0.4-0.7c0.1-0.3,0.2-0.5,0.4-0.6c0,0,0,0,0,0c0-0.1-0.1-0.1-0.1-0.2
		c-0.2-0.1-0.5-0.1-0.6-0.3c0-0.1,0-0.4,0-0.5c-0.1-0.2-0.4-0.2-0.4-0.5c0-0.2,0-0.8,0-1c0-0.5,0-0.4-0.1-0.8c0-0.2,0-0.5,0-0.7
		c-0.1-0.2-0.2-0.3-0.3-0.5l0-6.1l-0.6,0l0-0.4l-0.4,0l-0.1-5.2L369,91.9z"/>
	<path id="District_6" class="st0" d="M394.3,79.8l-13.3,0l0-7.8c-7.5-0.3-15.3,0.2-23.8-0.1l-0.1-9.9l-12,0l-0.2-18.1l-10.9-0.2
		l-17.6,0.1c0.1,0.3,0.2,0.6,0.4,0.8c0.3,0.3,0.5,0.6,0.9,0.8c0.1,0,0.1,0.1,0.2,0.1c0.1,0,0.1-0.1,0.2-0.1c0.1-0.1,0.3-0.1,0.3,0.1
		c0,0.1,0,0.3,0,0.4c0.1,0.2,0.3,0.4,0.5,0.5c0.2,0,0.3,0.1,0.5,0.2c0.2,0.1,0.4,0.1,0.5,0.3c0.1,0.1,0.1,0.1,0.2,0.2l-11.5,0l0,13
		l0.3,0l-0.1,8.9c-0.1,0-0.2,0-0.3,0c-0.2,0-0.3,0.1-0.5,0c-0.1,0,0-0.1-0.1-0.2c-0.1-0.1-0.3-0.1-0.4-0.2c-0.1,0-0.1,0.1,0,0.1
		c0.1,0.2,0.2,0.4,0.2,0.6c0,0.1,0,0.2-0.1,0.2c-0.1,0-0.2,0.1-0.4,0c-0.2,0-0.3-0.1-0.5,0c-0.1,0-0.2,0.1-0.2,0.1
		c-0.1,0.1-0.3,0.1-0.4,0.2c-0.1,0.1-0.1,0.2-0.1,0.3c0,0.2,0,0.3,0,0.4c0,0.1,0,0.3,0.1,0.3c0.1,0.1,0.2,0.1,0.3,0.2
		c0.1,0.1,0.1,0.2,0,0.3c0,0.1-0.1,0.2-0.1,0.3c-0.1,0.1-0.1,0.2-0.2,0.3c-0.1,0-0.2-0.1-0.3-0.1c-0.1-0.1-0.3-0.1-0.4-0.1
		c-0.1,0.1,0,0.2,0,0.2l-2.9,0l-0.1,5.9l4.1,0l0-0.4l0.5,0l0-0.2l0.5,0l0,0.7l7.4,0.1l0,3.1l5.9-0.1l0,2.9l0.2,0.2l0,17.8l11.9,0.1
		l0,5.9l0.1,0.1l-0.1,11.9l6,0l0,3l5.9,0l0,2.5c0.2,0,0.3,0,0.5-0.1c0.2-0.1,0.3-0.3,0.5-0.4c0.3,0.1,0.5-0.1,0.6-0.3
		c0.1-0.2,0.2-0.5,0.5-0.4c0.2,0.1,0.3,0,0.4-0.1c0-0.1,0-0.2-0.1-0.4c-0.2-0.3,0-0.4,0.3-0.4c0.3,0,0.6,0,0.8,0
		c0.5-0.3,0.5-0.9,0.9-1.3c0.1-0.3,0.4-0.4,0.6-0.4s0.5,0.1,0.8,0.1c0.2-0.2,0.5-0.3,0.7-0.3s0.5,0,0.6-0.4c0.3-0.2,0.2-0.4,0.2-0.7
		c-0.1-0.2-0.2-0.5-0.1-0.8c-0.2-0.1-0.3-0.3-0.3-0.5c0-0.2,0-0.5,0-0.7c0-0.2,0.1-0.5,0.3-0.7s0.4-0.2,0.7,0
		c0.3-0.2,0.1-0.3-0.1-0.5s-0.5-0.3-0.3-0.6c0.2-0.2,0.5-0.2,0.8-0.3c0.3,0,0.5-0.1,0.5-0.5c0,0,0-0.1-0.1-0.1l-2.3,0l0-1l-1.8,0
		l0-1l-4.3,0.1l0-2.1l0.3,0l0-0.6l-0.3-0.2l0.1-14.6c0.2-0.3,0.2-0.7,0.3-1.1c0-0.1,0-0.3,0-0.4c0-0.1,0.2-0.2,0.3-0.1
		c0.2,0.1,0.5,0.2,0.7,0.1c0.1-0.1,0.3-0.1,0.4-0.2c0.1,0,0.2-0.2,0.2-0.3c0-0.2,0-0.4,0-0.7c0.1-0.3,0.2-0.7,0.3-1
		c0.1-0.2,0.2-0.5,0.3-0.7c0.1-0.1,0.3-0.3,0.3-0.4c0.1-0.1,0.3-0.2,0.3-0.4c0-0.2,0-0.3,0.1-0.5c0.1-0.2,0.4-0.2,0.5-0.3
		c0.1-0.1,0.3-0.1,0.3-0.3c0-0.1,0.1-0.2,0.2-0.2c0.1,0,0.1,0.1,0.1,0.2c0,0,0,0.1,0,0.1l2,0l0-0.5l0.2,0l0-1.4
		c-0.2,0-0.5,0-0.6-0.2c-0.2-0.2-0.4-0.4-0.5-0.6c-0.1-0.2-0.3-0.4-0.2-0.6c0.1-0.2,0.3-0.3,0.5-0.3c0.2,0,0.2-0.2,0.2-0.4
		c0.1-0.2,0.2-0.3,0.4-0.3c0.2,0.1,0.2,0.4,0.3,0.5c0.2,0.1,0.4-0.1,0.3-0.3c0-0.2,0.2-0.2,0.3-0.1c0.2,0,0.3,0,0.5-0.1
		c0.2,0,0.4,0.2,0.6,0.2c0.2,0,0.1-0.2,0.1-0.4c0-0.2,0.2-0.2,0.3-0.2c0.1,0,0.3,0,0.4-0.2c0.2-0.2,0.4-0.1,0.6-0.2
		c0.2-0.1,0.3-0.4,0.5-0.5c0.2-0.1,0.3-0.1,0.5-0.2c0.1-0.1,0.3-0.1,0.5-0.1c0.1,0.2,0.1,0.4,0.3,0.5c0.2,0.1,0.3-0.1,0.2-0.2
		c0-0.2,0.2-0.4,0.2-0.6c0-0.2,0.3-0.3,0.1-0.5c-0.1-0.1,0-0.2,0.1-0.1c0.2,0.1,0.4,0.1,0.6,0.1c0.2,0.1,0.4,0.3,0.5,0.6
		c0.1,0.2,0.2,0.3,0.3,0.5c0.1,0.2,0.4,0.2,0.6,0.2c0.2,0,0.3,0,0.5,0.1c0.2,0.1,0.4,0.2,0.6,0.3c0.2,0,0.4,0.3,0.6,0.3
		c0.2,0,0.3-0.2,0.5-0.1c0.4,0.1,0.5,0.5,0.7,0.7c0.2,0.2,0.3,0.4,0.4,0.6c0.1,0.2,0.3,0.1,0.5,0.3c0.2,0,0.4,0.2,0.5,0.4
		c0.2,0.2,0.4,0.4,0.6,0.5c0.2,0.1,0.4-0.2,0.3-0.4c0-0.2,0.2-0.3,0.3-0.4c0.1-0.2-0.1-0.4,0.1-0.5c0.1-0.2-0.2-0.4-0.1-0.6
		c0-0.1,0.1-0.4,0.3-0.4l4.7,0l0,6l1.9,0l0,0l23.5-0.1l-0.2-1l-0.4-0.9l0-0.3l0-0.3l0.1-0.3l0.2-0.4l0,0l0,0l0-0.1l0,0l0,0l-0.2-0.2
		l-0.4-0.4l-0.1-0.2l0-0.3l0-0.3l0,0l0.1-0.7l0.1-0.2l0.2-0.2l0.2-0.2l0.1-0.3l0-0.1l0-0.2l-0.1-0.1l-0.1-0.2l-0.1-0.3l0-0.5
		l-0.1-0.8l0.1-0.3l0.2-0.2l0.1-0.3l0-0.3l-0.1-0.1l0-0.1l-0.3-0.4l-0.1-0.3l-0.1-0.4l0-0.1l0-0.2l0.1-0.1L394,80L394.3,79.8z"/>
	<path id="District_7" class="st0" d="M281.3-203L281.3-203l0,1.1l0,0.1l0,0.1l0,0.8l0,0.6l0,0.1l0,0l0,2.4l0,0.1l0,0l0,0.2
		l-0.1,3.8l-0.1,4l0,0.6l0,0.3l0,0.2l-0.2,12.4l-7.7-0.1l-0.8,0l-0.7,0l-0.6,0l-5.3-0.1l-12.9-0.3l-5.1-0.1l-0.8,0l-3.6-0.1l-1.5,0
		l-6-0.1l-12.1-0.4l-6-0.2l-6.1-0.2l-6-0.2l-0.1,0l-5.9-0.2l-6-0.2l-7.6-0.3l-0.1,0.2l0,0.1l0,0.1l0,0.1l0,0.2l-0.1,0.1l0,0
		l-0.1,0.2l-0.1,0.2l0,0.1l0,0.3l0,0.2l0,0.1l-0.1,0.3l0,0.1l0.1,0.1l0,0l0.1,0.1l0.1,0l0.1,0.1l0,0.1l0,0.1l0,0l0,0.1l0,0l-0.1,0.5
		l0,0.1l0.1,0.2l0,0l0,0l0,0.1l0,0l0,0l0,0.3l0,0.3l0,0l0.1,0.1l0.1,0.1l0.1,0.1l0,0.2l-0.1,0.2l0,0.2l0.1,0.2l0.2,0.1l0.1,0.1
		l0,0.2l-0.1,0.3l0,0l0,0.1l0,0l0.1,0.2l0,0l0,0l0.1,0.1l0.4,0.2l0,0.1l0,0.3l0,0.1l0,0.1l0,0l0,0l0,0.1l0,0l0,0.1l0,0.1l0,0.1
		l0,0.2l0.1,0.1l0.1,0.1l0.2,0.2l0.1,0.1l0.1,0.1l0,0.1l-0.1,0.3l0,0l0,0l0,0.1l0.1,0.1l0.1,0l0,0l0,0l0.1,0.2l0,0.3l0.1,0.3l0,0.2
		l0,0.1l0,0l0,0.1l0,0.1l0.1,0.1l0.1,0.2l0,0.2l0,0.1l0,0l0,0l0,0.1l0,0l-0.2,0.1l-0.1,0.1l0,0.3l0.1,0.2l0,0l0,0l0,0l0,0l0,0.2
		l-0.1,0.2l0,0.2l0.1,0.1l0.1,0.1l0.1,0l0.1,0l0.1,0.1l0,0.1l0,0.1l0,0.1l0,0l0,0.1l0,0.2l0,0.1l0,0.2l0,0.1l0,0.2l0.1,0.1l0.1,0
		l0.1,0.1l0,0l0,0.2l0,0.2l0,0.1l0.1,0l0.1,0l0,0.1l0,0.2l-0.1,0.1l0,0.1l0,0.1l0,0.1l0.1,0.1l0.2,0.5l0,0.2l-0.1,0.2l-0.1,0.2
		l0,0.1l0.1,0.1l0.3,0.3l0,0l0.2,0.3l0,0.5l0,0.1l0,0.1l0.2,0.1l0,0.1l0,0.2l0,0.1l0,0l0,0.1l0.1,0.1l0.4,0.3l0.1,0.1l0.1,0.1
		l0.1,0.3l0.2,0.3l-0.1,0.3l0,0l-0.1,0.1l0,0.2l0.4,0.7l0.2,0.1l0.3,0.2l0.1,0.1l0,0.1l0,0.1l0,0.1l-0.1,0.1l0,0.1l0,0.6l0,0.2
		l-0.1,0.1l-0.1,0.2l0.1,0.1l0,0.1l0,0.2l-0.1,0.2l-0.1,0.1l-0.1,0.1l-0.1,0.3l-0.2,0.2l0,0.1l0.1,0.3l0,0.3l0,0.1l0,0.1l0,0.1
		l-0.1,0l0,0.1l-0.2,0l-0.2-0.1l-0.2,0.1l0,0l0,0l0,0.2l0,0l0,0.1l0,0.2l0,0.1l0,0l-0.1,0l-0.1,0l-0.1,0.1l0,0.1l0,0.1l0,0.2l-0.1,0
		l-0.1,0l-0.1,0.1l0,0.2l0,0.1l0,0.1l0,0.2l-0.1,0.2l0,0.1l-0.1,0.1l0,0.1l0,0.2l0.1,0.2l0,0.1l-0.1,0.5l0,0.1l-0.1,0.1l-0.2,0.1
		l-0.1,0.1l0,0.2l0,0l0.1,0.1l0,0.2l0,0.1l-0.1,0.1l-0.1,0.1l-0.2,0.1l-0.1,0.1l0,0.3l0,0.1l0.1,0.1l0.1,0.1l0.1,0.2l0,0.1l0,0.1
		l-0.1,0l-0.2,0.1l-0.1,0.1l0,0.1l0,0.2l0.1,0.1l0,0l0,0l0.3,0.2l0.1,0.2l0.1,0.2l0,0.2l-0.1,0.1l-0.1,0.1l-0.1,0.3l0,0.3l0.1,0.6
		l0.1,0.6l0,0.1l0.1,0.1l0.3,0.2l0,0l0.1,0.1l0,0.2l0,0.3l0,0.1l-0.2,0.1l-0.1,0.1l0,0.2l0.1,0.1l0,0.1l0,0.1l0,0.1l-0.1,0.1
		l-0.1,0.3l0,0.2l0.1,0.2l0.1,0.1l0.2,0.1l0.1,0.1l0,0.2l0,0l-0.1,0.3l-0.2,0.2l0,0.1l0,0.2l0,0.1l0.1,0.1l0,0l0,0.2l0,0.2l-0.1,0.1
		l-0.1,0.1l-0.1,0.1l0,0.1l0.1,0.2l0.1,0.1l0,0l0,0.1l0,0.2l-0.1,0l0,0l-0.2,0.1l0,0.1l0,0.1l0,0.1l0.2,0l0,0l0.1,0.3l0,0l0,0.3
		l0,0.2l-0.2,0.3l-0.2,0.1l-0.1,0.1l0,0.1l0,0.3l0,0.2l0.1,0.2l0,0.1l0,0.1l0,0.1l0,0.1l0,0.2l0,0.2l-0.1,0.2l-0.1,0l0,0l0,0l0,0.1
		l0,0.1l0,0.5l0,0l0,0l0.1,0.4l0,0l0.1,0l0,0l0.1,0.1l0,0.1l0,0.1l0,0.1l0,0.2l0,0.1l0.2,0.2l0,0.1l-0.1,0.3l-0.1,0.3l0,0l0,0.1
		l0,0.1l0.1,0l0,0l0.2,0.1l0,0.1l0,0.2l-0.1,0.2l0,0.1l0,0.1l0,0.2l0,0.2l0.1,0.1l0.1,0l0.1,0.1l0.1,0.1l0,0.2l0,0.2l0.1,0.1l0,0
		l0,0l0,0.1l0,0.1l-0.1,0l-0.1,0l-0.1,0.1l0,0.1l0,0.2l0.1,0.1l0.1,0l0.1,0.1l0.2,0.5l0,0.1l0,0l0,0.1l0,0l0,0.1l0,0l-0.4,0.5
		l-0.1,0.1l-0.3,0.1l0,0.1l0,0.1l0,0.1l0.1,0l0.1,0.1l0,0.1l0,0.1l-0.1,0.1l0,0.1l0,0.1l0.1,0.2l0,0.1l0,0.1l-0.1,0.1l-0.2,0
		l-0.2,0.2l0,0.1l0,0.2l0.1,0.1l0.1,0.2l0,0.1l-0.1,0.1l-0.1,0l-0.1,0.1l0,0.2l0.1,0.1l0.1,0.1l0,0.1l0,0.1l0,0.1l-0.1,0.1l0,0.2
		l0,0.1l0.1,0l0,0.1l0,0.1l0,0l-0.1,0.1l0,0.2l0,0l0,0l0.1,0.1l0,0.2l-0.2,0.1l0,0.1l0,0.1l0,0.1l0,0.1l0,0.2l-0.1,0.2l0,0.1l0,0.1
		l-0.1,0.1l-0.2,0.3l0,0.1l0.1,0.1l0.1,0l0.1,0.1l0,0.2l0,0.1l0,0.1l-0.2,0.2l0,0.1l-0.1,0.1l0,0.2l0.1,0.4l0.1,0.2l0.1,0.1l0,0.1
		l0,0.2l0,0.2l-0.1,0.2l-0.1,0.2l0,0.2l0,0.1l0.1,0l0.2,0.1l0.1,0.1l0,0.2l0,0.1l0.1,0.2l0,0.4l0,0.2l0.2,0.5l0,0.1l0,0.1l0,0.1
		l0,0.1l-0.1,0.2l0,0.1l0,0l0,0.1l0,0l0.1,0.1l0.3-0.1l0.1,0l0.1,0.1l0,0.3l0.2,0.2l0.1,0.1l0,0.1l0,0l-0.1,0.1l0,0.1l0,0.1l0.1,0.1
		l0.1,0.2l0,0.3l-0.1,0.3l-0.2,0.2l0,0.1l0,0.1l0.1,0l0.2,0l0.3,0.6l0.2,0.3l0,0l0.1,0.1l0.1,0.1l0.1,0.1l0.2,0.1l0,0l0,0l0,0l0,0.1
		l0,0l0,0.1l0,0l0,0.1l0,0.3l0.1,1l0,0.1l-0.1,0.3l0,0l0,0l0,0.1l0,0l0,0l0,0.1l0,0l0.1,0.1l0.2,0l0.1,0l0,0l0,0.1l-0.1,0.1L191-110
		l0.1,0.8l0.1,0.2l0.3,0.2l0.1,0.1l0,0.1l0,0l0,0l0,0.2l-0.1,0.5l-0.2,0.4l0,0.1l0.1,0.2l0,0.1l-0.2,0.2l0,0.1l0,0.1l0.1,0.1
		l0.2,0.2l0.1,0.2l0,0.2l-0.1,0.3l0,0l0,0.1l0,0.2l0.2,0.2l0.3,0.2l0.2,0l0.2,0.1l0,0.2l-0.1,0.2l0,0.2l0.3,0.2l0.1,0l0.1,0.1l0.1,0
		l0,0l0.1,0.1l0,0l0.1,0.2l0,0.1l-0.3,0.2l0.1,0.1l0.1,0l0.1,0.1l0.1,0.2l0,0.2l-0.1,0.1l-0.2-0.1l-0.1-0.1l-0.1,0l0,0.2l0.2,0.2
		l0,0.1l-0.2,0.2l0,0.2l0.3,0.3l0,0.1l-0.3,0.2l0,0.2l0.1,0.1l0.2,0.1l0.1,0.1l-0.1,0.1l-0.2,0.1l0,0.1l0.1,0.1l0.2,0.1l0.1,0
		l0.5,0.1l0.1,0.1l0.1,0.1l-0.1,0.1l-0.1,0.1l0,0.1l0.2,0.2l0.1,0l0,0l0.1,0.1l0,0.2l0,0.1l0,0l0,0l0,0l0,0.4l0,0l0,0.1l0,0.1l0,0.1
		l0,0l0,0l0,0.1l0.2,0.3l0.3,0l0.2,0.5l0,0.1l0,0.2l0,0.1l0,0l0.1,0l0,0.2l0,0l-0.1,0l0,0.1l0,0l0,0.3l0.1,0.3l-0.1,0.1l-0.1,0.1
		l0,0.1l0,0.1l0.2,0.3l0,0.2l0.1,0.1l0.1,0l0.1,0l0.2,0.1l0.1,0.2l0.3,0.2l0,0.1l0,0l-0.2,0.1l-0.1,0.1l-0.1,0.1l0,0.1l0.1,0l0,0
		l0.1,0l0,0l0.1,0.1l0.1,0.1l0,0.2l0.3,0.1l0.2,0.2l0.3,0.3l0.1,0.3l-0.1,0.2l0,0.1l0,0l0,0l0,0l0.1,0.1l0.1,0.1l0,0.1l0,0l-0.1,0
		l0,0.1l0,0l0.2,0.1l0,0.2l0,0.2l-0.1,0.1l-0.2,0.2l0,0.1l0,0.1l0.1,0.2l0.3,0.4l0.3,0.3l0,0.1l0,0.1l-0.2,0.2l0,0.1l0,0l0.1,0.1
		l0,0.2l0,0.2l0,0.1l0.1,0.1l0.1,0.1l0,0.1l0,0.2l0,0.1l0,0.1l0,0l0,0l0,0l0,0l0,0l0,0.1l0.1,0.1l0.1,0.2l0,0.1l0,0l0,0l-0.1,0.1
		l0,0.1l0,0l0,0l0,0l0,0l0,0l0,0l0,0l0,0l0.1-0.1l0,0l0,0l0,0l0,0l0,0l0,0l0,0.1l0,0l0,0.5l0,0.5l0,0l0.1,0.1l0.1,0l0.1,0l0,0.1
		l0.1,0.1l0,0.2l0.1,0.2l0.1,0.2l0,0l0,0.1l-0.1,0.2l0,0l0,0.4l0.2,0.2l0,0l0,0l0,0l0,0.3l0,0.2l0,0l0,0l0,0l-0.2,0.1l0,0.1l0.3,0.3
		l0.1,0.5l0.1,0.4l0.1,0.1l0.3,0.1l0,0l0,0l-0.2,0.1l0,0.1l0,0l0.4,0.1l0.2,0l0,0l0.1,0.1l0.1,0.1l0,0l0,0.1l0,0.1l0,0.1l-0.1,0.3
		l0.1,0.1l0.1,0.1l0,0.1l0,0.1l-0.1,0l0,0.1l0.1,0.1l0.1,0.1l0,0.1l0,0.2l0,0.1l0,0.1l0,0.1l0,0.2l0,0l0,0l-0.1,0.2l0,0.2l0.1,0.1
		l0,0.1l-0.1,0.2l-0.1,0l0,0l0,0l0,0.1l0.1,0l0,0.1l0,0.1l0,0.1l0,0l0,0.1l0.1,0.1l0.1,0.1l0,0l0.1,0.2l0,0.1l-0.1,0.1l0,0.1l0,0.1
		l0.1,0.1l0,0l0,0l0,0.1l0,0.1l-0.1,0.1l0,0.1l0,0l0,0.1l0,0.1l-0.3,0.4l-0.1,0l-0.1,0.1l-0.1,0.1l0,0.1l0.1,0.3l0,0.2l0.1,0.1
		l0.2,0.1l0,0l0.1,0l0.1,0l0,0l0,0.1l0,0.1l0.1,0.1l0,0.1l0,0.1l-0.1,0.1l0,0.2l0,0l0,0.2l0.1,0.1l0,0l0,0.1l0,0l-0.1,0.1l-0.1,0.1
		l0,0.1l-0.1,0.1l0,0.1l0,0.1l0.1,0.1l0,0l0,0l0,0.1l-0.1,0.1l0,0.1l0,0l0,0.1l0,0.1l0,0l0.1,0.1l0,0.1l0,0.2l-0.1,0.1l-0.1,0.1
		l0,0.2l0,0.3l0.1,0.2l0,0.1l0,0.2l-0.1,0.1l0,0.1l0,0.1l0,0l0.1,0.1l0,0.1l0,0.1l0,0.4l0,0.2l0,0.1l0,0.1l-0.1,0.2l0,0.1l0,0.1
		l0.1,0.2l-0.1,0.2l0,0.1l0,0.1l0.1,0.1l0,0.1l0,0.1L199-69l0,0l-0.1,0.1l0,0.1l0,0l0.1,0.1l0,0.1l0,0l0,0.1l0,0l0,0l0.1,0.2l0,0
		l0,0l0.1,0l0.1,0.1l0,0.1l0,0.1l0.1,0.1l0.1,0.1l0.1,0.2l0,0l0,0.2l0,0.2l0.1,0.1l0.1,0.1l0,0.1l0,0.4l-0.2,0.1l0,0l0,0.2l0,0.1
		l-0.1,0.1l-0.2,0l0,0.1l0.1,0.1l0.1,0.1l0,0.1l0,0.1l0,0l-0.1,0.1l0,0.1l0.1,0.2l0,0.1l0,0.2l0.1,0.1l0.1,0.1l0.1,0l0.1,0l0,0.1
		l-0.1,0.3l0,0.2l0.2,0.4l0.2,0.2l0,0.2l-0.1,0.2l0,0l0,0.1l0.1,0.1l0,0l0.1,0.1l0,0.2l0,0.1l0,0l0,0l0,0l0,0.1l0,0l0,0.1l0,0.1
		l0,0.1l0,0l-0.1,0l-0.1,0.1l0,0l0,0.3l0.1,0.1l0.2,0l0.1,0l0.1,0.3l0,0.2l-0.3,0.5l-0.2,0.3l0,0l0,0l0,0.1l0,0.1l0,0l0.1,0.4l0,0.5
		l0,0l0,0l0,0l-0.1,0.1l0,0.1l0,0.2l0,0.1l0.1,0.1l0,0l0,0l0,0.1l-0.1,0l0,0l0,0.1l0,0.1l0,0l0,0l0,0.1l0,0.2l0,0l0,0l0,0.1l0.1,0.1
		l0,0l0,0.1l0,0.1l0,0l0.1,0l0.2,0.2l0,0.2l0,0.1l-0.1,0.1l0,0.1l0,0.1l0,0.1l0,0.1l0.1,0.1l0.1,0.1l0,0.1l0,0.1l-0.1,0.1l0,0
		l-0.1,0.2l0,0.2l0,0l0.1,0.1l0,0.1l-0.1,0.1l0,0.1l0,0.1l0,0.1l0.1,0.1l0,0.1l0,0.1l0,0.1l0.1,0.2l0,0.1l0,0.1l0,0.1l-0.1,0.2
		l0,0.1l0,0l0.1,0.1l0.1,0.1l0,0.1l-0.2,0.2l0,0.1l0,0.1l0,0.1l0.1,0.1l0.2,0.1L200-53l0,0.1l-0.1,0.2l0,0.1l0.1,0.1l0,0.1l0.1,0
		l0.1,0l0.1,0.1l0,0.1l0,0.1l-0.1,0.2l0,0l0,0.1l0,0.1l0.1,0l0.1,0.1l0.1,0.1l0,0.1l0,0.2l0.1,0.1l0,0.1l0,0.2l-0.1,0.1l0,0.1l0,0
		l0.1,0.1l0,0l0,0l0,0l0,0.1l-0.2,0.1l-0.1,0.1l-0.2,0.2l0,0l0,0.1L200-50l0,0l0,0.1l-0.1,0.1l-0.1,0.1l0.1,0.1l0,0.1l0.1,0.1l0,0.2
		l0,0.1l0,0.2l0,0.1l0.1,0.1l0.1,0.1l0.1,0.1l0,0.2l0,0.1l-0.1,0.1l0,0.1l0,0.1l0,0l0.3,0.3l0,0.1l-0.1,0.2l0,0l0,0.1l0,0.1l0,0l0,0
		l0,0l0.1,0.1l0,0.1l0,0.1l0,0.1l0,0.1l0,0.1l0,0l0,0.1l0,0.3l-0.1,0.2l0,0.1l0,0l0.1,0.1l-0.1,0.3l0,0.1l0.1,0.1l0,0.2l-0.1,0.1
		l0,0l0.1,0.2l0,0l0,0l-0.1,0.1l0,0.1l0,0.3l0.1,0.1l0,0l0,0l0,0l0,0.1l-0.1,0l0,0.1l0.1,0.3l0.1,0.2l0,0.1l0,0.4l-0.1,0.4l0,0
		l0,0.1l0.1,0.2l0,0l0,0l0,0.1l0,0.1l-0.1,0.1l-0.1,0l0,0.1l0,0.1l0,0.1l0.1,0.1l0,0.1l-0.1,0.1l-0.4,0.1l-0.1,0.1l-0.2,0.4l0,0.1
		l-0.1,0.3l-0.1,0.1l0,0.1l0,0.1l0,0l0.1,0.2l0.2,0.2l0.1,0l0.1,0.1l0,0.1l0,0l0,0.1l0,0.2l0.1,0.2l0.1,0.9l0,0l0,0l-0.1,0.4l0,0.1
		l0.1,0.1l0.4,0.2l0.4-0.1l0,0l0,0l0.1,0.1l0,0.1l0,0.1l0,0.2l0,0.3l0.1,0.1l0,0l0,0.2l0,0.1l0,0.1L201-36l0.1,0l0.1,0l0.1,0.1
		l0,0.2l0,0.3l-0.1,0.2l0,0.2l0.1,0.1l0,0l0.1,0l0.1,0l0.1,0.2l0,0.1l0.1,0l0.1-0.2l0.2-0.1l0.1-0.1l0.6-0.3l0.1,0l0.1,0.1l0,0.1
		l0,0l-0.1,0.2l0,0.1l0,0.1l0.1,0.1l0,0l-0.1,0.1l0,0l0,0.1l0,0.1l0.1,0.1l0,0l0,0.1l-0.1,0l-0.1,0.1l0,0l-0.1,0.3l0,0.2l0,0.1
		l-0.1,0.2l-0.1,0l-0.1-0.1L202-33l-0.1,0.6l0,0.4l0,0.1l0,0.2l0,0.1l0.1,0l0.1,0l0.1,0l0,0.1l-0.1,0.3l-0.1,0.1l-0.1,0l-0.2-0.1
		l-0.2-0.1l-0.1,0.1l0.1,0.2l0.1,0.1l0,0.1l0,0.1l0,0.2l0,0.1l0,0l0,0.1l0,0l-0.1,0.1l0,0.1l0,0.1l0.1,0.1l0,0l0,0.1l0,0l0,0.1
		l0,0.1l0,0.1l0,0l0,0.1l0,0.1l0.1,0.1l0.1,0l0.1,0.1l0,0.1l0,0.1l0,0.1l0,0l0,0.1l0.1,0.1l0,0.1l-0.1,0.1l-0.1,0l-0.1,0l0,0.1
		l0,0.1l0,0.1l0,0.1l0,0l-0.1,0.2l-0.2,0l0,0l0,0.1l0,0.1l0.1,0.2l0,0.1l-0.1,0l-0.1,0l-0.3,0.4l-0.1,0.2l0,0.3l-0.1,0.2l-0.1,0.1
		l0,0.1l0.1,0.1l0.2,0.1l0.1,0.1l0,0l0,0.2l0,0l0,0.1l0,0.2l0,0.2l0,0.3l0,0.1l0,0.1l0,0l0,0l0,0.1l0.1,0l0.1,0.2l0,0.1l0,0l0,0.2
		l0,0.1l0,0.1l0,0l0.1,0l0.1,0.1l0,0.1l0,0.1l0,0.1l0.2,0.2l0,0l0,0.1l0,0.1l0,0l0,0l0,0.1l0,0.1l0.1,0.1l-0.1,0.1l-0.1,0l0,0.1
		l0,0.1l0,0.1l0.1,0.1l0.1,0.1l0,0.2l-0.1,0.1l0,0.1l0,0l0,0.1l0,0.1l0,0.1l0.1,0.2l0,0.2l-0.1,0.3l0.1,0.2l0,0l0,0l0,0.1l0,0.3
		l-0.3,0.1l0,0.3l0,0.1l0,0.2l-0.2,0.4l-0.1,0.3l0,0l0.1,0.2l0,0.3l0,0.2l0,0.1l0,0.2l0.1,0l0,0.1l0,0l0,0.1l-0.2,0.2l0,0.1l0,0
		l-0.1,0.1l-0.2,0l0,0l0,0.1l0,0.1l0,0.1l0,0.2l-0.1,0.1l0,0l-0.1,0.1l0,0.5l0.1,0.3l0.3,0.3l0.1,0.5l0,0.2l0,0.2l-0.1,0.3l0.1,0.1
		l0.1,0.1l0,0l0.1,0.1l0,0l0,0.1l0,0.1l0,0.1l0,0.3l0.2,0l0,0.1l0,0l-0.1,0.1l0,0.1l0,0l0.1,0.1l0,0l0,0l0,0.1l0,0.1l0,0l0,0.1
		l0.1,0.1l0.1,0.1l0,0l0,0.2l0,0.1l0,0.1l0,0l0.1,0.1l0,0l0.1,0l0.1,0.2l0.1,0.1l0,0.1l0,0.1l0,0.2l0,0l0,0l0,0l0.2,0.1l0.1,0.1
		l0,0.1l0,0l0.1,0l0,0l0.2,0l0,0l0,0.2l0,0.1l0.1,0.1l0.2,0l0.1,0.1l0.1,0.5l0,0l0,0l0,0.1l0,0.1l-0.1,0.1l-0.1,0.1l0,0.1l0,0.1
		l0.1,0.1l0.1,0.1l0.1,0.3l0,0.1l-0.1,0.2l0,0.1l0.1,0.1l0,0.1l0,0l0,0l0,0L202.6-8l0,0l0,0.1l0,0l0.1,0.1l0,0.1l0,0.1l-0.1,0.1
		l0,0.1l0,0l0.1,0.3l0.2,0.2l0,0.6l0,0.3l-0.1,0.3l0,0l0.1,0.2l0,0.1l0,0l-0.1,0.2l0,0l0,0l0,0l0.1,0.1l0,0l0,0l0,0l0,0.2l-0.1,0.3
		l0,0.1l0,0.2l0.1,0.1l0,0.1l-0.1,0.2l0,0l0,0.1l0,0.1l0,0l0.4,0.2l0,0.1l0,0.1l0.1,0.1l0.1,0l0,0l0,0l0,0.1l0,0.1l0,0.1l0.1,0.1
		l0.1,0.2l0.1,0.1l0,0.3l0,0.2l0,0l0,0l0,0.1l-0.1,0.1l-0.1,0.1l0,0.1l0,0.1l0,0.1l0.1,0l0,0.1l0,0.1l0,0.1l-0.1,0.2l0,0.2l0,0.1
		l0.1,0.1l0.2,0l0.1,0l0,0l0.1,0.2l0,0.1l0,0.1l0,0l0.1,0l0.1,0l0.1,0.1l0,0.2l0,0.1l0,0l0,0.1l0,0l0,0.1l0,0.2l0.2,0l0,0l0,0l0,0.1
		l0,0.1l0,0l0,0.1l0.1,0.1l0.1,0L205,1l0,0.1l0,0.1l0,0.1l0.2,0.1l0.1-0.1l0.1,0l0,0l0,0l0.1,0.1l0.4,1l0,0.4l0.1,0.6l0.1,0.1
		l0.4,0.1l0,0.2l0,0l0,0l0.1,0.2l0,0l0,0.1l0.2,0.1l0.2,0.1l0,0.1l0,0.1l0,0.1l0.1,0.3l0.1,0.1l0.2,0l0.4-0.2l0.1,0.1l0,0.1l0,0.1
		l0.4,0.2l0.1,0.2L208.1,6l0,0.1l0.3,0.2l0.3,0.4l0.3,0.1l0.1,0.1l0,0.1l0,0.2l0,0.1l-0.1,0.4l0.1,0.4l0,0.1l-0.2,0.6l0,0l0,0.2l0,0
		L209,9l0,0.1l0,0.1l-0.1,0.1l0.1,0.1l0.1,0l0,0l0,0.1l0,0l0,0l0,0l0,0.2l0,0L209,10l0,0l0,0l0,0l0,0.1l0,0.1l0,0.1l0.1,0.1l0,0
		l0.1,0l0,0l0,0.1l0,0l0,0.2l0,0.1l0,0.2l-0.1,0.2l0,0l0,0.1l0,0.1l0,0l0.1,0l0.1,0.1l0,0.1l0,0.1l0,0.1l0,0.1l0.1,0.1l0.1,0l0,0.1
		l0,0.1l0,0l0,0.1l-0.1,0.1l-0.1,0l-0.2,0.1l0,0l0,0.1l0,0l0,0.1l0,0.1l0,0.2l0,0.1l0,0.2l0,0.2l0.1,0.6l0.2,0.1l0.2,0.6l0.1,0.4
		l0,0l0,0.2l0,0.2l0,0.1l-0.1,0.1l-0.1,0l0,0.3l0,0.2l0,0.3l0,0l0.1,0.1l0,0l0,0l0,0.1l0,0.1l0,0.1l0,0.1l0,0.1l0.1,0l0.1,0l0,0.2
		l0,0l0,0.1l0,0.1l0,0l0.1,0.1l0.1,0l0.1,0.1l0,0.2l0,0.2l0,0l0,0.2l-0.1,0.6l0,0.3l0.1,0.2l0.1,0.1l0.2,0.5l0.1,0.1l0,0l-0.1,0.4
		l-0.1,0.1l0.1,0.1l0.1,0.1l0.2,0.2l0,0.2l-0.2,0.1l0.1,0.2l0.1,0.2l0,0.1l0,0l0.2,0.2l0.1,0.2l0.1,0.4l0,0.3l0,0.4l0.1,0.2
		l-0.1,0.3l-0.1,0.5l0,0.1l0.1,0.2l0,0.3l0,0.1l-0.1,0.4l0,0.1l0,0.1l-0.3,0.3l-0.4,0.9l0,0l-0.2,0.7l0,0.2l0,0l0,0.1l0,0l0.1,0.4
		l-0.1,0.6l0.1,0.3l0,0.1l0,0.9l0,0.7l0,0.4l0,0.8l0.2,0.9l0.1,0.2l0.1,0.1L210,34l0,0.2l-0.1,0.6l0,0.4l0,0.1l-0.1,0.2l0,0.1l0,0.2
		l0,0.1l0,0.1l0,0.1l0,0l0,0l-0.1,0.2l0,0l0,0.1l0,0.2l0,0.3l0,0.5l0,0.2l-0.1,0.1l-0.1,0.7l0,0.3l-0.1,0.3l0,0.1l0,0.3l-0.1,1
		l0,0.2l-0.1,0.2l-0.1,0.1l0,0.3l-0.1,0.5l-0.2,0.4l0,0l0,0l0,0l-0.2,0.2l-0.3,0.2l-0.2,0.1l-0.2,0.4l-0.3,0.5l0,0l-0.1,0.2
		l-0.1,0.1l0,0l-0.1,0.1L207,44l-0.4,0.2l-0.1,0.1l-0.1,0.2l0,0.2l-0.3,0.5l-0.1,0.2l0,0.1l0,0.2l0,0l-0.1,0.3l0,0l-0.5,0.9
		l-0.4,0.4l-0.1,0.1l-0.2,0.2l-0.2,0.1l-0.1,0.1l0,0l-0.7,0.4l-1.2,0.5l-1.7,1.1l-0.3,0.2l-0.4,0.5l-0.2,0.2l-1.1,0.7l-0.1,0
		l-0.3,0.2l-0.5,0.3l-0.1,0.1l-1.2,0.9l0,0l0,0l-0.1,0l-0.2,0.1l-0.2,0.1l0,0.1l-0.2,0.2l-0.2,0.4l-0.2,0.8l-0.2,0.5l0,0.1l-0.1,0.3
		l-0.2,0.4l0,0.2l0.2,0.3l0.2,0.2l0.1,0.2l0.1,0.2l0,0l0.1,0.2l0.3,0.4l1.5,2.2l0.1,0.1l0.2,0.2l0.4,0.7l0.2,0.4l0.7,1l0.2,0.5
		l0.3,0.9l0.1,0.2l0.3,0.8l0.1,0.3l0,0.3l0.1,0.1l0.2,0.4l0.1,0.5l0.1,0.5l0.1,0.1l0.3,0.4l0.6,1l0.3,0.6l0.1,0.1l0,0l0,0l0.1,0.1
		l0.3,0.4l0.1,0.1l0.1,0.2l0,0l0.1,0.1L203,70l0.1,0.1l0.2,0l0.3,0l0.4,0.1l0.7,0l0,0l0.3,0.1l0,0l0.5,0l0,0l0.2,0l0.3,0.1l0,0
		l0.1,0l0.7,0.3l0.8,0.5l0.3,0.3l0.4,0.2l0.4,0.3l0.8,0.4l0.3,0.1l0.4,0.1l0.4,0.2l0.7,0.5l0.3,0.2l0.4,0.4l0.2,0.2l0.3,0.7l0.1,0.2
		l0.1,0.3l0,0l0.2,0.4l0.2,0.5l0,0l0,0.1l0,0.2l0,0.1l0,0.1l0.1,0.1l0.2,0.2l0.2,0.4l0,0.1l0,0.2l0,0.1l0.1,0.1l0,0.1l0,0l0,0.2
		l0,0.4l0,0.2l0,0.3l0,0.1l0,1l0,2l-0.1,2.2l0,0.3l0,0.1l-0.1,1.7l-0.1,1.7l0,0.2l0,1.8l0,0.1l0,1.9l0,0.1l0,0.9l0,1l0,0.1l0,0.1
		l0,0.8l0,0.1l0,0.6l0,0.4l-0.1,3.9l0,0.2l-0.1,1l-0.1,3.6l0,0.3l0,1l0,0.2l-0.2,5.8l0,0.1l0,0.1l0,0.4l0,0.3l0,0.1l0,0.2l0,0.8l0,1
		l0,0.1l-0.1,2.9l0,1.1l0,1l-0.1,4l0,0l-0.2,6l0,0l-0.1,1.2l0,0.7l0,0.7l0,1.5l0,0.8l0,0.2l0,0.7l0,0.1l-0.1,1.2l0,2l-0.1,1.6l0,0.4
		l0,0.8l0,0.8l0,0.3l0,0.7l0,0.2l0,0.1l0,0.8l0,0.2l0,0.9l0,0.1l0,0.9l0,0.1l0,0.8l0,0.1l0,0.1l0,0.8l0,0.2l0,0.9l0,0l0,1l-0.1,3
		l-0.2,5.9l-0.1,5l0,0.1l-0.1,0.8l0,0.1l0,0.1l0,0.9l0,0.1l-0.1,0.8l0,0.1l0,0.9l0,0.2l0,0.8l0,0l0,1.1l0,0.1l0,0.9l0,0.1l-0.1,3.8
		l0,0l0,0.1l0,1.8c11.1,0.4,22.2,0.7,33.4,1c11.3,0.3,22.7,0.5,34,0.6l0.3-18l-4.1,0l0-2l0.9-0.1l0-2.9l2,0l0-1l0.7,0l0-6l11.9,0.1
		l0.3-14.9c0,0.1,0.2,0.2,0.3,0.2c0.3,0.1,0.5,0.1,0.8,0.1c0.1,0,0.2,0.1,0.3,0.2c0.1,0.1,0.3,0.2,0.4,0.3c0.2,0.1,0.4,0.2,0.6,0.3
		c0.1,0.1,0.2,0.2,0.3,0.3c0.1,0.2,0.2,0.4,0.3,0.5c0.2,0.2,0.4,0.4,0.5,0.7c0,0.1,0.1,0.2,0.2,0.2c0,0,0.1,0.1,0.1,0.1l42.3,0.3
		c0.2-0.1,0.6-0.4,0.5-0.6c-0.2-0.3-0.1-0.5,0.1-0.5c0.2-0.1,0.4,0,0.6,0.1c0.3-0.1,0.3-0.4,0.4-0.7c0-0.3,0-0.6,0.3-0.8
		c0.4-0.4,0.3-1,0.4-1.5c0.1-0.2,0.1-0.5,0-0.7c-0.1-0.2-0.3-0.3-0.6-0.4c-0.2-0.2-0.4-0.3-0.6-0.5c-0.1-0.1,0-0.2,0-0.3l0,0
		c0-0.2-0.2-0.3,0-0.5c0.2-0.2,0.4-0.3,0.6-0.5c0.2-0.2,0.4-0.4,0.3-0.7c0.1-0.6-0.1-1.2-0.2-1.8c0.1-0.3,0.4-0.6,0.6-0.8
		c0.3-0.2,0.6-0.2,1-0.2c0.3,0.1,0.4,0,0.5-0.1c0.1-0.2,0.1-0.4,0.1-0.6c0-0.2,0.1-0.3,0.2-0.4c0.1-0.1,0.3,0,0.4,0
		c0.3,0.1,0.7,0.1,0.9-0.1c0.1-0.3,0.3-0.6,0.5-0.7c0.3-0.1,0.6-0.1,0.8,0.1c0.2,0.3,0.4,0.3,0.6,0.1c0.2-0.1,0.4-0.4,0.5-0.5
		c0.1,0,0.1,0,0.1,0l0-2.5l-5.9,0l0-3l-6,0l0.1-11.9l-0.1-0.1l0-5.9l-11.9-0.1l0-17.8l-0.2-0.2l0-2.9l-5.9,0.1l0-3.1l-7.4-0.1l0-0.7
		l-0.5,0l0,0.2l-0.5,0l0,0.4l-4.1,0l0.1-5.9l2.9,0c0-0.1,0-0.2,0-0.2c0.1-0.1,0.3,0,0.4,0.1c0.1,0.1,0.2,0.1,0.3,0.1
		c0.1,0,0.1-0.2,0.2-0.3c0.1-0.1,0.1-0.2,0.1-0.3c0-0.1,0-0.2,0-0.3c-0.1-0.1-0.3-0.1-0.3-0.2c-0.1-0.1-0.1-0.2-0.1-0.3
		c0-0.2,0-0.3,0-0.4c0-0.1,0-0.2,0.1-0.3c0.1-0.1,0.3-0.1,0.4-0.2c0.1-0.1,0.1-0.1,0.2-0.1c0.2,0,0.3,0,0.5,0c0.1,0,0.3,0,0.4,0
		c0.1-0.1,0.1-0.1,0.1-0.2c0-0.2,0-0.4-0.2-0.6c-0.1,0,0-0.2,0-0.1c0.1,0,0.3,0.1,0.4,0.2c0.1,0.1,0,0.1,0.1,0.2
		c0.1,0.1,0.3,0,0.5,0c0.1,0,0.2,0,0.3,0l0.1-8.9l-0.3,0l0-13l-6.3,0l0.1-10.9l-0.3-0.1l0.3-24.1l-0.3,0l0-4.4
		c-0.1-0.2-0.1-0.3-0.3-0.3c-0.1,0-0.2,0-0.1-0.1c0-0.1-0.2-0.3-0.3-0.4c-0.1,0-0.1,0-0.2,0c-0.1,0.1-0.2,0.2-0.2,0.3
		c0,0.1,0,0.1,0,0.2c-0.1,0.1-0.2,0.1-0.4,0.1c-0.1,0-0.1-0.1-0.1-0.1c-0.1,0-0.3,0-0.4,0c-0.4,0.1-0.5-0.2-0.9-0.2
		c-0.1,0-0.4,0.1-0.4,0.1c0-0.1-0.1-0.1-0.1-0.2c-0.1-0.1-0.1-0.3-0.2-0.4c0-0.1-0.1-0.2-0.2-0.3l0-0.2l-20.2-0.3l0.2-18.1l-0.4,0
		l0.4-24.1l-0.4,0l0.4-24l-0.7,0l0-6l18,0.4l0.1-5.9l-3.4-0.1l0.1-0.4c-0.1-0.2-0.2-0.3-0.4-0.2s-0.3,0.1-0.3,0.2l-0.9-0.1l0-0.5
		l-0.7,0l0-1l-0.4,0l0.2-10.1l-0.4,0l0.1-9l6.2,0l0-5l2.9,0l0.1-3.9L314-102l0-6l-0.2,0c0.1-8,0.1-16.1,0-24.1l-0.2,0l0.1-16.5
		l0-6.6l0,0l-0.4,0.4l-0.4,0.1l-0.3,0l-0.5-0.2l-0.4-0.1l-0.6-0.1l-0.6,0l-0.4-0.2l-0.7-0.1l-0.4,0l-0.2-0.1l-0.3-0.6l-0.2-0.2
		l-0.1,0l-0.2-0.1l-0.6,0.1l-0.9-0.2l-0.1-0.1l0,0l0,0l-0.1-0.1l-0.2-0.2l-0.1-0.2l-0.1-0.1l0-0.1l-0.4-0.2l0,0l-0.4-0.4l-0.5-0.1
		l-0.5-0.1l-0.2-0.2l0-0.3l-0.1-0.1l0,0l-0.3-0.4l-0.4-0.3l-0.3-0.4l-0.3-0.2l-0.7-0.5l-0.1-0.2l-0.2-0.8l0-0.3l-0.1-0.5l0-0.1
		l0.1-0.5l-0.4-1.1l0.1-0.5l0.2-0.3l0.3-0.2l0.2-0.1l-0.3-0.9l0.1-0.7l0,0l-0.1-0.4l0.4-0.2l0-0.2l0-0.6l0,0l-1.6-8.1l-1.4,0l0.1-7
		l-1-1.5l0-0.3l-1-5.1l0-1.2l-1.2-5.6l0.1-1l0.4-0.9l-1-0.2l-0.8,0l-1.1-0.6l-1.3-1.1l-0.1-0.1l-1.9-1.3l-0.2-0.1l-0.8,0.2l-0.7-0.1
		l-1.2,0.9l-1.6,0.2l-0.4,0l-1.4-0.6l-0.6-0.2l-0.1-0.1l-0.2-0.1l-0.3,0l-0.5-0.2l-0.7-0.6l-0.2,0l-0.2-0.2l0-0.2L281.3-203z"/>
	<path id="District_8" class="st0" d="M313.8-155.3l0,6.6l-0.1,16.5l0.2,0c0.1,8,0.1,16.1,0,24.1l0.2,0l0,6l-15.1-0.1l-0.1,3.9
		l-2.9,0l0,5l-6.2,0l-0.1,9l0.4,0l-0.2,10.1l0.4,0l0,1l0.7,0l0,0.5l0.9,0.1c0.1-0.1,0.2-0.2,0.3-0.2s0.3,0.1,0.4,0.2l-0.1,0.4
		l3.4,0.1l-0.1,5.9l-18-0.4l0,6l0.7,0l-0.4,24l0.4,0L278-12.3l0.4,0l-0.2,18.1L298.3,6l0,0.2c0.1,0.1,0.1,0.2,0.2,0.3
		c0,0.1,0.1,0.3,0.2,0.4c0,0.1,0.1,0.1,0.1,0.2c0,0.1,0.4,0,0.4-0.1c0.4,0,0.5,0.3,0.9,0.2c0.1,0,0.3-0.1,0.4,0c0,0,0.1,0.1,0.1,0.1
		c0.1,0,0.3,0,0.4-0.1c0,0,0-0.1,0-0.2c0-0.1,0.1-0.3,0.2-0.3c0,0,0.1-0.1,0.2,0c0.1,0.1,0.2,0.2,0.3,0.4c0,0.1,0.1,0.2,0.1,0.1
		c0.1,0.1,0.2,0.2,0.3,0.3l0,4.4l0.3,0l-0.3,24.1l0.3,0.1l-0.1,10.9l6.3,0l0,0l11.5,0c-0.1-0.1-0.1-0.1-0.2-0.2
		c-0.2-0.1-0.4-0.2-0.5-0.3c-0.1-0.1-0.3-0.1-0.5-0.2c-0.2-0.1-0.4-0.3-0.5-0.5c-0.1-0.1,0-0.3,0-0.4c0-0.1-0.3-0.2-0.3-0.1
		c0,0.1-0.1,0.1-0.2,0.1c-0.1,0-0.1-0.1-0.2-0.1c-0.3-0.2-0.6-0.6-0.9-0.8c-0.2-0.2-0.3-0.5-0.4-0.8l17.6-0.1l10.9,0.2l0.2,18.1
		l12,0l0.1,9.9c8.5,0.3,16.3-0.2,23.8,0.1l0,7.8l13.3,0l0.4-0.3l0.1-0.2l0.1-0.1l0.2-0.4L396,78l0.2-0.4l0.2-0.5l0-0.2l0-0.2l0-0.1
		l0-0.2l-0.2-0.8l0-0.2l0-0.2l0.3-0.4l0.8-0.7l0-0.1l0-0.2l0.1-0.3l0.1-0.2l0.1-0.2l0.1-0.2l0.2-0.3l0.3-0.2l0.4-0.2l0,0l0-0.2
		l0-0.1l0.1-0.2l0,0l0,0l0.1-0.4l0-0.1l-0.1-0.2l0-0.2l0-0.2l0-0.3l0-0.2l0.1-0.6l0-0.2l0-0.1l0,0l-0.1-0.1l0-0.1l-0.2-0.7l-0.1-0.1
		l-0.4-0.2l-0.8-0.3l-0.1-0.1l0,0l-0.1-0.3l-0.1-0.1l-0.1-0.2l-0.1-0.1l-0.1-0.1l0,0l-0.1-0.1l-0.1-0.3l-0.2-0.3l-0.2-0.4l-0.5-0.7
		l-0.2-0.2l-0.4-0.4l-0.1-0.2l0-0.3l0-0.5l0.1-0.8l0-0.1l0,0l0,0l0-0.2l-0.3-0.2l-0.4-0.3l-0.3-0.2l0,0l-0.1,0l-0.2-0.1l-0.1-0.1
		l-0.1-0.1l-0.4-0.4l-0.3-0.2l-0.2-0.1l-0.1,0l-0.1,0l-0.4,0l-0.2,0.1l-0.5,0.3l-0.5,0.1l-0.2,0l-0.3,0l-0.5-0.1l-0.5-0.2l-0.2,0
		l-1.2-0.1l-0.5-0.4l-0.1-0.1l0-0.2l0.1-0.7l-0.2-0.4l0-0.2l0.1-0.5l0.1-0.3l0-0.3l-0.2-0.4l-0.1-0.3l0-0.3l0.1-0.3l0,0l0-0.1l0-0.1
		l0-0.1l-0.1-0.2l0-0.2l0-0.1l0.1-0.2l0.1-0.6l0.1-0.3l0.2-0.4l0.1-0.7l0-1l0.3-0.5l0,0l-0.1-0.2l0.2-0.8l0-0.2l0-0.2l0.2-0.2
		l0.1-0.1l0.4-0.1l0.1-0.1l0-0.1l0-0.2l0.1-0.1l0.3,0l0.1-0.1l0.2-0.2l0.3,0l0.1-0.1l0.1-0.2l0.5-0.4l0.2-0.1l0.2-0.1l0-0.1l0.1-0.1
		l0.1-0.1l0,0l0-0.1l0.1-0.2l0.2-0.1l0.6-0.7l0.1-0.1l0.1-0.6l0,0l0.1-0.7l0.1-0.3l0-0.2l0.2-0.4l0.2-0.2L393,45l0.1-0.2l0-0.2
		l0-0.3l-0.1-0.3l0,0l0-0.1l-0.1-0.1l0-0.1l0-0.1l-0.1-0.3l0,0l0-0.2l0-0.2l0.2-0.3l0.1-0.1l0.2-0.1l0.3-0.3l0.2-0.1l0.3-0.4l0-0.1
		l0.1-0.7l0-0.2l0-0.3l0.1-0.3l0.6-1.1l0.4-0.5l0,0l0.2-0.2l0,0l0.1,0l0.1,0l0.2,0l0.4-0.3l0.2-0.2l0.1-0.1l0,0l0.3-0.1l0.1-0.1
		l-0.1-0.2l0-0.1l0.3-0.3l0.5-0.5l0.1-0.1l0,0l0.8,0l0-0.1l-0.1-0.4l0,0l0-0.1l0,0l0.1-0.1l0.3,0.1l0.1,0l0.3-0.2l0.4,0.1l0,0l0,0
		l0.2-0.1l0.1-0.1l0.3-0.2l0.6-0.1l0.5-0.3l0.3-0.1l0.3,0l0.4-0.2l0.4,0l0-0.1l0.1-0.3l0-0.3l0-0.5l0.1-0.1l0.1-0.1l0.4-0.5l0.3-0.3
		l0.2-0.1l0,0l0.1,0l0,0l0.1-0.1l0.1,0l0.1,0l0.7,0.2l0.4,0.2l0.2,0.1l0,0l0.3,0l0.2,0.1l0.3,0.1l0.1-0.1l0.3-0.2l0.1-0.2l0-0.1
		l-0.1-0.1l0-0.1l0,0l0,0l0-0.1l0.1-0.2l0.3-0.2l0.2-0.2l0-0.2l0-0.1l0.1-0.2l0.1-0.1l0.3-0.5l0-0.2l0.1-0.3l0.3-0.4l0.3-0.2
		l0.4-0.2l0.4,0l0,0l0.1,0l0,0l0.8,0.5l0.6,0.2l0.4,0.2l0,0l0.3,0.1l0.1,0l0,0l0,0l0.2,0l0.3-0.2l0,0l0,0l0-0.1l0-0.1l0-0.2l0-0.1
		l0.1-0.1l0.1-0.1l0-0.1l0-0.4l-0.1-0.4l0-0.2l0.1-0.2l0.1-0.3l0-0.2l0.1-0.5l0-0.1l0-0.1l0-0.1l0.1-0.1l0-0.1l0.1-0.1l0.1-0.1l0,0
		l0.4-0.2l0.1-0.1l0.5-0.2l0.4,0l0.2-0.1l0-0.3l0-2.4l-0.1-3l0-0.7l0-0.9l0-3.1l0-1.3l0-1.1l0-1.9l0-0.5l0-0.2l0-0.4l0-0.2l0-0.4
		l0-0.1l0-0.3l0-0.2l0-0.7l0-0.1l-0.1-5.9l0-0.3l0-0.8l-0.1-3.2l0-1.2l0-0.6l0-1.8l0-0.2l-0.1-4l0-0.3l0-0.7l0-1.4l-0.1-2.1l0-0.6
		l0-0.2l0-0.2l0.2,0.1l0,0.3l0,0.2l0.1,0.1l0.2,0l0.2,0.1l0.1,0.3l0.1,0.1l0.2,0l0.3-0.4l0.2-0.1l0.7,0.6l0.3,0l0.3-0.2l0.1,0l0.2,0
		l0.3,0.2l0.2,0l0.3-0.1l0.1-0.1l0.1-0.1l0-0.1l0-0.2l-0.2-0.4l0-0.2l0.2-0.2l0.3-0.4l0.2-0.2l0.3-0.1l0,0l0.2-0.2l0.1-0.2l0-0.3
		l-0.1-0.1l-0.2-0.2l-0.7-0.1l-0.3-0.1l0-0.3l0-0.1l0.1-0.1L419-18l0.2-0.3l0.1-0.3l0.1-0.1l0.5,0l0.2,0l0,0l0.3-0.2l0.6,0.3l0.3,0
		l0.1-0.1l0.1-0.2l0.2-0.5l-0.1-0.2l0-0.4l0,0l0.2-0.3l0.6-0.4l0.4-0.3l0,0l0.4,0l0.9,0l0.9,0.9l0.3,0.3l1.1,1.1l0.4,0.4l0.5,0.2
		l0.2,0.1l0.3-0.2l-0.5-0.3l-1.9-2.4l-1.2-1.9L424-23l-0.2-0.6l0-0.1l0.3-0.4l0.1,0l0.3-0.2l0,0l0.1-0.1l0.4-0.2l0.3-0.2l0.1-0.3
		l0-0.1l0.4-0.3l0.5-0.4l0.3-0.3l0.3-0.3l0.1-0.1l0.1,0l0.6-0.4l0.3-0.2l0.4-0.2l0.6-0.7l1.5-1.2l1.4-1l0.1-0.1l0.3-0.2l0.4-0.5
		l0.8-0.8l0.2-0.2l0.6-0.2l1.4-1.2l0.3-0.1l0.4,0l0.9-0.5l0.6-0.4l0.1-0.1l0.5-0.3l0,0l0.2-0.4l0.6-0.7l0,0l0.1-0.1l1.1-1.3l0.2-0.2
		l1.3-1.4l0.4-0.1l0.4-0.2l0.3-0.1l0.7-0.3l0.2-0.3l0.1-0.1l0.7-0.5l0.3-0.9l0,0l0-0.1l0.1-0.1l0-0.1l0.2-0.3l0,0l0.6-0.6l0.3-0.2
		l0.1-0.1l0,0l0.2,0l0.4-0.4l0.2-0.4l0.6-1.1l0.5-0.3l0.8-0.4l0.5-0.2l0.8-0.4l0,0l0.5-0.7l0.1-0.1l0.3-0.3l1-0.2l0.9-1l0.1-0.1
		l0.1-0.3l0.1-0.1l0.4-0.5l0.4-0.5l0.6-0.8l0.4-0.3l0.2-0.2l0.3-0.3l0.5-0.3l0.3-0.4l0.2-0.3l0.1-0.1l0.6-0.6l0.2-0.4l0,0l0.2-0.3
		l0.4-0.6l0,0l0.2-0.2l0.5-0.7l0.8-0.9l0.8-0.9l0.1-0.1l0.2-0.2l0.6-0.6l0.2-0.2l0.2,0l0.2-0.3l0.3-0.4l0-0.1l0.2-0.4l0,0l0.2-0.4
		l0,0l0.1-0.2l1.1-1.3l0.4-0.4l0,0l0.8-0.8l0.2-0.4l0-0.1l0-0.1l0.3-0.7l0.3-0.6l0.4-0.7l0.2-0.2l0,0l0.1-0.1l0.1,0l0.2-0.1l0.7-0.9
		l0.1-0.4l1-0.9l0.4-0.1l0.2-0.3l0.7-0.8l0-0.1l0.5-0.7l0.3-0.4l0.6-0.7l0.1-0.1l0,0l0,0l0.1-0.1l0.5-0.1l0.4-0.5l0,0l0.2-0.1
		l0.8-0.8l0.2-0.2l0.8-0.8l0.2-0.1l0.4-0.4l1.1-1l0.1-0.1l0.5-0.3l0.2-0.1l0.2,0l0.1,0L478-76l0.2-0.2l0-0.3l0.1-0.2l1.1-1.1
		l0.4-0.4l0.2-0.2l0.4-0.4l1-0.8l0.3-0.3l0.2-0.2l0.2-0.2l1.4-1.1l1-0.8l1.4-1.1l0.7-0.4l0.4-0.3l1.2-0.7l1.8-0.9l0.3-0.2l0.1-0.1
		l0.1-0.1l1.3-0.8l1.1-0.7l1.6-0.7l0.6-0.9l0.4-0.1l0.4-0.1l0.2-0.1l1-0.4l1.6-0.6l0,0l0.7-0.4l0.2-0.4l0.7-0.3l1.2-0.3l0,0l0.4-0.2
		l1-0.2l0.4-0.1l0.4-0.1l0.1,0l0.2-0.1l0.1,0l0.4-0.1l0.1-0.3l0,0l0.1,0l0.2-0.1l0.1,0l0.1-0.1l0.2-0.1l0.2-0.1l0,0l0.3,0l0.5-0.2
		l1-0.5l0.6-0.3l0.1-0.1l0.5-0.2l0,0l0.9-0.3l0.8-0.1l1.2-0.1l0.4-0.6l0.8-0.4l0,0l0.3,0l1-0.2l0.1,0l0,0l0.7,0l0.8-0.4l0.5-0.2
		l0.3-0.1l0.3,0l0.1-0.3l0-0.3l0.2-0.1l0.8-0.3l0.2-0.1l0.2-0.1l1.3-0.3l1.5-0.6l0.3-0.1l1.4-0.9l0.4-0.3l0.1,0l0.2-0.2l0-0.1
		l-0.1-0.4l0-0.1l0,0l0.3-0.3l0,0l0.1,0l0.1-0.1l2.2-0.9l0.1,0l0,0l0.1,0l0.5,0l0.1,0l0.5-0.2l0.2-0.1l0,0l0.5-0.2l0.1,0l0.1-0.1
		l1.4-0.7l1.2-0.9l0.4-0.3l0.3-0.3l0,0l0.6-0.5l0.3-0.5l0.8-0.6l0.7-0.5l0.7-0.4l0.9-0.4l0.2,0l0.7-0.2l0.1,0l-0.1-0.4l0-0.6
		l0.1-0.4l0.2-0.5l0.3-0.2l0,0l0.4,0.1l0.2,0l0,0l0.1,0l0.7,0.5l0,0l0.4,0.3l0.7-0.1l0.4-0.3l0,0l0.4-0.3l0.1-0.4l0.1-0.5l0.4-0.4
		l1.6-0.5l0.5-0.2l0.1-0.1l0-0.1l0.1-0.7l-3.5,1l-0.2,0.4l-0.5,0.2l-0.1,0l-0.1-0.1l-0.1-0.2l0,0l-0.1-0.1l-0.3-0.1l-0.3,0l-0.3-0.1
		l-0.1-0.2l0-0.2l0-0.3l0-0.1l-0.1,0l-0.1,0.1l0,0.2l-0.1,0.1l-0.1,0l0,0l-0.2,0l-0.5,0.2l-0.1,0.1l0.1,0.1l0,0.1l0,0.1l0,0l-0.1,0
		l-0.1-0.1l-0.2,0l-0.1,0.1l-0.1,0.1l-0.1,0l-0.1-0.1l-0.1-0.2l-0.1-0.2l-0.3,0l0,0.2l-0.1,0.1l-0.1-0.1l-0.1-0.1l0-0.1l-0.1,0
		l-0.1,0l-0.1,0.1l-0.2,0l-0.1,0l0-0.1l-0.1,0l-0.6,0.3l-0.1,0l-0.1-0.1l-0.1-0.1l-0.1,0l-0.2,0l-0.1,0.1l0-0.1l0-0.4l-0.1-0.1
		l-0.1,0.1l-0.1,0.1l-0.1,0.1l0-0.2l0-0.1l0.1,0l0,0l-0.1-0.1l0,0l-0.1,0l0,0l0,0.1l0,0l-0.3,0l0-0.1l-0.3-0.1l-0.1,0.1l-0.2,0.1
		l0,0l-0.1-0.2l-0.2-0.1l-0.7,0.1l-0.4,0.1l-0.2,0.2l-0.2,0.1l-0.4,0l-0.1,0.1l0,0l0,0.2l-0.1,0l-0.3,0.1l0,0l-0.1-0.2l-0.6,0.2l0,0
		l-0.1,0.3l-0.3,0.7l-0.1,0.1l-0.1,0l-0.2-0.2l-0.1,0l0,0l0,0l0,0l0,0l0,0.3l-0.1,0.3l-0.1,0l-1,0.2l-0.1,0.1l0,0.1l0,0.1l0,0l0,0
		l0,0l-0.3-0.1l-0.3,0l-0.4-0.1l0,0l-0.1,0l0,0l-0.1,0l0,0l-0.2-0.2l-0.1,0l-0.3-0.1l-0.2-0.1l-0.3-0.3l-0.4-0.6l-0.1-0.1l0-0.2
		l-0.1-0.2l-0.7,0l-0.2,0.3l-0.4-0.2l-0.2,0l-0.3-0.4l-0.2-0.2l-0.3-0.1l0,0l-0.1,0.1l-0.1,0l-0.2-0.2l-0.1-0.1l-0.1-0.3l0-0.4
		l0.1-0.5l-0.2-0.6l-0.5-0.7l-0.1,0l0,0.1l-0.2,0.1l-0.2-0.3l-0.3-0.9l-0.3-0.2l-0.5-0.1l-0.2-0.1l-0.1,0l-0.2,0l-0.4-0.3l-0.8-0.3
		l-0.8-0.2l-1.2,0.1l-0.3-0.1l-0.1-0.1l-0.1,0l-0.2,0l-0.2-0.2l-0.2,0l-0.3,0l-0.1,0.1L512-118l-0.6,0.1l-0.6-0.1l-0.5,0.3l-0.3,0
		l-0.7,0.2l-0.2,0l-0.4-0.1l-0.4,0.1l-0.9,0.4l-0.5,0l-0.4,0l-0.7,0.3l-0.2,0l-0.2-0.2l-0.4-0.2l-0.3,0l-0.2,0.1l-0.6,0.1l-0.3,0.2
		l0,0.2l-0.2,0l0,0.1l0,0l-0.1,0l-0.3,0l-0.6,0l-0.2,0.1l0,0.2l-0.1,0l-0.4-0.2l-0.1-0.1l-0.1-0.1l0-0.2l-0.2-0.1l-0.2,0l-0.5-0.3
		l-0.3,0l-1.3,0.5l-0.2-0.1l-0.2-0.2l-0.2-0.1l-0.5-0.2l-0.1-0.1l-0.1,0l-0.1,0.2l-0.3,0.1l-0.1,0.2l-0.1,0.1l-0.2,0.1l-0.1,0
		l-0.2-0.1l-0.1,0.1l0,0l0,0.1l-0.4-0.1l-0.1,0.1l-0.1,0.1l-0.3-0.1l-1.9,0.3l-0.3-0.2l-0.1-0.2l-0.1-0.4l0.6-0.7L493-118l-0.3-0.1
		l-0.2,0.1l-0.3,0l-0.1,0l-0.1-0.2l-0.1,0l-0.4,0.3l0,0.2l-0.7,0.1l-0.5,0.2l-0.2,0l-0.3,0l-0.6,0.6l-2.1,0.3l-0.8,0.3l-1.8,0.2
		l-0.5,0.3l-0.5-0.5l0-0.1l-0.3-0.7l-0.1-0.4l-0.2,0l-0.1-0.1l0,0l-0.1-0.2l0,0l0-0.1l-0.3-0.2l-0.2,0l-0.1-0.2l0.1-0.2l0-0.1l0,0
		l0-0.1l-0.1,0l-0.2,0l-0.1,0l-0.1-0.1l0-0.2l0.5-0.4l0.3-0.2l0-0.6l0.1-0.4l-0.1-0.1l-0.2-0.1l-0.1,0.1l-0.1,0.2l-0.5,0.1l-0.2-0.3
		l-0.2-1l-0.3-0.1l-0.3,0l-0.1-0.2l-0.1-0.1l-0.2,0.1l0,0.2l0,0.3l-0.3,0.2l-0.2-0.2l0.1-0.8l-0.1-0.9l-0.2-1.6l0-0.1l-0.1-0.1l0,0
		l0.1-0.4l-0.1-0.3l-0.2-0.3l-0.2,0l-0.9,0.4l-0.4,0.1l-0.3-0.2l-0.2-0.4l-0.6,0.4l-0.4,0.3l-0.4,0.5l-0.4,0.1l-2.4,0.8l-1.2,1.2
		l0.1,0.2l-0.4,0.2l-0.5,0.4l0,0.2l-0.4,0.1l-0.2,0l0,0l-0.4,0l-0.6,0.1l-0.3,0.2l-0.1,0.3l-0.4,0.2l-0.2,0l0-0.1l-0.1,0l-0.3,0.3
		l-0.2,0.3l-0.2,0.1l-0.5,0.2l-0.3,0.2l-0.1,0.3l-0.1,0.1l-0.8,0.3l0,0.1l0,0.1l0.1,0.1l0.1,0.2l-0.8,0.6l-0.9,1.1l-0.3,0.3
		l-0.4-0.2l-1,1.6l-0.5,0.2l-0.4,0.3l-0.7,0.8l-0.7,0.4l-0.5,0l-0.6,0.3l-0.6,0.1l-0.4,0l-0.2,0l-0.4,0.1l-0.2,0.1l0,0l0,0.1
		l-0.1,0.1l-0.2,0l0-0.1l-0.1-0.2l-0.5,0.1l-0.7,0.4l-0.3-0.2l-0.4,0.3l-0.5,0.6l-1.1,0.3l-0.7,0.4l-0.4,0l-0.1-0.1l0-0.2l-0.4-0.8
		l0-0.3l-0.2-0.1l-0.7,0.2l-1.1,0l-2.5,1.1l-1.1,0.7l-0.4-0.3l0.1-0.6l-0.1-0.6l0.2-1.9l0.8-0.7l-0.3-0.4l-0.8,0.1l-0.6,0.3l-1.2,0
		l-1.2,0.4l-0.6-0.9l0.1-0.2l0-0.1l-0.1,0l-0.4,0.2l0,0.2l-0.1,0.1l-0.1-0.1l-0.2,0l-0.2,0.1l-0.2,0l-0.3-0.2l0.2-0.4l0.1-0.3
		l-0.5,0.2l0.1,0.1l-0.1,0.1l-0.5,0.2l-0.4-0.1l0-0.1l0-0.1l0.2-0.4l0.2-0.1l0.2-0.5l0.1-0.7l0-0.1l0-0.1l-0.1,0l-0.1,0l-0.2-0.5
		l0.1-0.1l0.1-0.4l0-0.8l-0.2-0.1l-0.4,0.1l-0.3,0.2l-0.1-0.1l0.1-0.5l0.1-0.1l0.4-0.5l0-0.1l0-0.3l-0.2-0.3l0,0l-1.1-0.3l-0.2,0
		l0,0.4l-0.1,0.1l-0.2,0l-0.2-0.1l-0.1-0.3l-0.2,0l-0.1,0.2l-0.1,0.1l-0.8,0l-0.2,0.3l-0.2,0l-0.1-0.4l0,0l-0.2,0l-0.1,0L435-122
		l-0.3-0.2l-0.1-0.2l-0.7,0.2l-0.1,0l-0.3,0l-0.3,0.1l-0.9,0.2l-0.2-0.9l-0.8-0.5l-0.4-0.7l-0.5,0.1l-0.1,0l0,0l-0.1,0l-0.3-0.1l0,0
		l0,0l0,0l-0.1,0.1l-0.4,0.1l-0.4,0.1l-0.1,0.1l0,0.1l-0.2,0l-0.3-0.1l-0.1,0l-0.2,0l0-0.2l0-0.1l0-0.1l0-0.1l0-0.1l0.2-0.1l0,0
		l0-0.2l-0.1-0.1l0-0.1l0-0.1l0-0.1l-0.2-0.1l-0.5,0l-0.1,0.1l0,0.2l0.1,0.1l0,0.1l-0.2,0.2l-0.1,0l0-0.1l0-0.1l0,0l-0.1,0l-0.4-0.9
		l-0.8-0.3l-0.1-1l-0.2-0.5l0-0.7l0.6-1.7l-1.4-0.3l-0.3-0.5l-0.4-0.1l0-0.6l0.1-0.1l-0.1-0.2l-0.1,0l-0.3-0.7l-0.5,0l-0.5,0.1
		L422-132l-0.4,0l-2.4-0.1l-0.1-0.6l-0.8,0.2l-0.7,0.5l-0.1,0.1l0,0.3l-0.7,0.2l0,0l0-0.1l-0.4-0.1l-0.2,0.3l0,0.1l0,0.1l-0.5,0.1
		l-0.1-0.2l-0.2-0.1l-1.8-0.3l-1.2,0.9l-0.3,1.3l-0.4,0.1l-0.1,0.5l0.5,0.7l-0.3,1.3l0.3,0.7l0.1,0.1l0.1,0l-0.1,0.3l0.2,0.4
		l0.8,0.6l0.2,0.6l-0.5,0.3l-1.6,0.3l-0.3,0.2l-0.2,0l-0.3,0.2l-0.1,0l-0.1-0.1l-0.1,0l-0.1,0.1l-0.1,0.2l-0.4,0.1l-0.2,0.1
		l-0.4,0.5l-0.3,0.2l-0.2-0.2l-0.2-0.4l-0.1-0.1l0-0.2l0-0.2l-0.2-0.2l-0.1-0.2l0-0.2l0-0.1l-0.1,0.1l0,0l-0.1-0.2l0-0.2l-0.1-0.3
		l-0.2-0.5l-0.2-0.4l-0.4-0.9l-0.5-1.1l-0.5-0.6l-0.1-0.1l-0.1,0.1l-0.2-0.3l0,0l0-0.1l-0.2-0.4l-0.6-1l-0.2-0.5l-0.6-1.1l-0.3-1.4
		l0.9-2.1l0-0.9l-0.9-0.3l-0.3-0.5l0-0.1l-0.1-0.1l-0.1-0.1l-0.2,0l-0.1-0.2l-0.7-1l-0.4,0l-1,0.1l-1.8,0.5l-3.7,0.3l-0.3-0.2
		l-1.1-0.2l-1.2-1.3l0.2-0.5l0-0.2l0.3-0.8l0.1-0.7l0.6-0.2l1.1,0l0.3-0.4l0.3,0.1l0.5,0l0.3-0.1l0.2-0.2l-0.1-0.1l-0.1-0.1l0-0.1
		l0.2-0.3l0,0l-0.1,0l0,0l0-0.2l0,0l-0.1-0.3l-0.3-1.4l-1.1-0.2l-3.2,0.5l-7.7-3.8l-0.7-0.1l-0.9-0.7l-0.9-0.1l0-1.5l-0.2-0.1
		l-1.4,0.6l-4.8-0.2l-2.5,0.2l-1.5,0.1l-0.1,0l-0.1-0.1l-0.2-0.2l-1.1-1l-2.2,0l-4.2,1.1l0,0l0,0.1l-0.2,0.6l0,0.1l0,0l0,0.1l0,0.1
		l-0.1,0l0,0l-0.3-0.1l-0.2,0.4l0,0.1l-0.2,0.1l-0.6,0l-0.5,0.1l0,0l0,0l-0.2,0l-0.1-0.2l-0.1-0.1l0-0.1l-0.1,0l-0.1,0.1l-0.3,0.2
		l0,0l-0.5,0.3l-0.1,0.1l-0.1,0.1l-0.1,0.1l-0.1,0.2l-0.2,0.1l-0.6,0l-0.5,0.1l0,0.1l0,0.1l0,0.2l0.2,0.9l0.2,0.5l0,0l0,0.1l0,0.3
		l-0.1,0.5l-0.1,0.3l-0.2,0.3l-0.1,0.1l-0.6,0.2l-0.1,0l0,0l-0.8,0.1l-0.7,0.5l-0.2,0.1l-0.6,0.1l-0.4,0.2l-0.3,0.1l-0.7,0l-0.8,0.2
		l-0.1,0l-0.3-0.1l-0.3,0l-0.2,0.1l-0.3,0.3l-0.1,0.1l-0.1,0l-0.1,0l-0.1,0l-0.1,0l-0.2-0.2l-0.2-0.2l-0.2-0.3l-0.1,0l-0.2,0.1
		l-0.1,0.2l-0.1,0.4l-0.2,0.2l-0.1,0.1l-0.1,0.1l-0.5,0.1l-0.8,0l-0.8,0.1l-0.2,0l-0.4-0.2l-0.1,0l-0.1,0l-0.1,0l-0.1,0l-0.2,0
		l-0.2,0l-0.1,0l-0.2,0l-0.2,0l-0.2,0l-0.1,0l-0.3,0l0,0l0,0l-0.5,0.2l-0.2,0l-0.3-0.1l-0.4,0l-0.6,0l-0.4,0l-0.1-0.2l-0.2-0.1
		l-0.5-0.3l-0.1-0.1l-0.1-0.3l-0.1-0.2l0-0.1l0-0.1l0.2-0.3l0-0.2l0-0.2l0-0.2l0-0.1l0.1-0.4l0.1-0.4l0-0.5l0-0.1l-0.1-0.5l0-0.2
		l-0.2-0.3l-0.3-0.7l-0.1-0.5l0-0.1l0-0.1l-0.1-0.3l-0.1-0.1l-0.2-0.1l-0.3-0.8L341-150l-0.1-0.1l-0.2-0.1l-0.3-0.1l-1.3,0l-0.3,0
		l-1.1-0.3l-0.1,0l0,0.1l-0.1,0.1l-0.5,0.1l-0.8-0.1l-0.5-0.1l-0.3-0.2l-0.1-0.1l-0.6,0l-0.6-0.2l-0.5-0.2l-0.3-0.1l-1,0.2l-0.3,0
		l-0.3-0.1l-0.4-0.1l-0.3,0.1l-0.2,0l-0.1-0.2l-0.3,0l-0.3,0.1l-0.7,0l-0.4-0.2l-0.4,0.1l-0.8,0l-0.6-0.1l-0.8,0l-0.5-0.2l-0.1,0
		l-0.9-0.2l-0.5-0.1l-0.7,0.1l-0.5,0l-0.4-0.2l-0.5-0.1l-0.1,0l-0.1-0.1l0,0l-0.2-0.3l0-0.2l0.2-1l0-0.3l-0.1-0.2l-0.3-0.4l-0.1-0.3
		l-0.2-0.2l-0.5-0.1l-0.3-0.4l-0.1,0l-0.4-0.2l-0.4-0.1l-0.4-0.1l-0.9,0.4l-0.7,0l-0.5,0l-0.7-0.2l-0.4-0.2l-0.3-0.1l-0.2,0
		l-0.8,0.1l-0.4,0l-0.1,0.1l-0.1,0.1l-0.1,0.2L313.8-155.3z"/>
</g>
</svg>
