<?xml version="1.0" encoding="utf-8"?>
<!-- Generator: Adobe Illustrator 19.1.0, SVG Export Plug-In . SVG Version: 6.00 Build 0)  -->
<svg version="1.1"
	 id="svg3487" sodipodi:docname="MN-81.svg" inkscape:version="0.48.5 r10040" xmlns:svg="http://www.w3.org/2000/svg" xmlns:sodipodi="http://sodipodi.sourceforge.net/DTD/sodipodi-0.dtd" xmlns:rdf="http://www.w3.org/1999/02/22-rdf-syntax-ns#" xmlns:inkscape="http://www.inkscape.org/namespaces/inkscape" xmlns:cc="http://creativecommons.org/ns#" xmlns:dc="http://purl.org/dc/elements/1.1/"
	 xmlns="http://www.w3.org/2000/svg" xmlns:xlink="http://www.w3.org/1999/xlink" x="0px" y="0px" viewBox="294 -294 600 600"
	 style="enable-background:new 294 -294 600 600;" xml:space="preserve">
<style type="text/css">
	.st0{fill:#FECB00;}
	.st1{fill:#003478;}
	.st2{fill:#FFFFFF;}
</style>
<sodipodi:namedview  inkscape:current-layer="svg3487" inkscape:window-maximized="0" inkscape:window-y="83" inkscape:window-x="541" inkscape:window-height="797" inkscape:window-width="1103" inkscape:pageshadow="2" inkscape:pageopacity="0" id="namedview22" guidetolerance="10" gridtolerance="10" showgrid="false" pagecolor="#ffffff" bordercolor="#666666" inkscape:zoom="0.98026042" borderopacity="1" objecttolerance="10" inkscape:cy="300" inkscape:cx="333.36864">
	</sodipodi:namedview>
<path id="rect3525" class="st0" d="M331.5-294h525c20.7,0,37.5,16.8,37.5,37.5v525c0,20.7-16.8,37.5-37.5,37.5h-525
	c-20.7,0-37.5-16.8-37.5-37.5v-525C294-277.2,310.8-294,331.5-294z"/>
<path id="path428" class="st1" d="M306.5-273.7l0.6,2.4v1.2l0.6,2.4v1.2v3l-0.6,2.4l0.6,4.8l-0.6,0.6l0.6,3l1.2,4.8l0.6,1.2l0.6,4.2
	l0.6,1.8v6.6v3.6l0.6,1.8v1.8v4.2l0.6,1.8l0.6,2.4l1.2,3l0.6,2.4l0.6,0.6v3l-0.6,2.4v1.2l-1.2,1.8v0.6l-0.6,0.6l-1.8,1.2v0.6v0.6
	v0.6l1.2,1.8l0.6,1.2l1.2,0.6l1.2,0.6v0.6l0.6,0.6v1.8v36.5h79.5v-1.2v-4.8l-0.6-0.6l-0.6-0.6l-1.2-2.4l-0.6-0.6h-0.6l-1.8-1.2
	l-1.2-0.6l-2.4-1.8l-0.6-1.2l-0.6-1.2l-0.6-0.6l-0.6-1.2h-1.2l-0.6-0.6l-1.8-1.2l-0.6-0.6l-1.2-1.2h-0.6l-0.6-0.6h-0.6h-0.6h-0.6
	l-0.6-0.6l-1.2-0.6l-1.8-1.8l-0.6-0.6v-0.6v-0.6v-8.4v-1.8l0.6-0.6v-0.6l0.6-0.6v-1.2v-0.6v-0.6L371-199l-1.2-0.6v-0.6l-0.6-0.6
	v-0.6l0.6-0.6l1.2-3v-0.6l1.2-1.2l4.8-3v-0.6l0.6-0.6v-11.4l1.2-1.2l7.8-7.8l4.8-5.4l2.4-3l0.6-0.6l1.2-1.2l2.4-1.8l4.8-3h0.6l6-2.4
	h0.6l6-4.8h-1.2h-1.8h-0.6h-0.6H411h-0.6l-0.6-0.6l-1.2-1.2h-9h-0.6l-1.8-1.8l-0.6-0.6h-0.6l-0.6,0.6h-0.6l-0.6,0.6l-1.2,1.8h-0.6
	l-0.6,0.6l-3,0.6h-0.6h-0.6l-0.6-0.6l-1.8-0.6v-0.6l-0.6-0.6v-0.6l-3-0.6l-0.6-0.6l-0.6-1.2l-0.6-0.6h-0.6v-0.6h-0.6h-0.6l-0.6,0.6
	H377v0.6v1.8h-0.6h-0.6v-0.6l-1.2-1.8v-1.2l-0.6-0.6h-2.4v-0.6v-1.2v-0.6l-6-2.4H365h-0.6h-1.2l-0.6,0.6h-0.6l-1.2,1.2l-0.6,0.6v0.6
	h-1.2l-1.8,0.6h-1.2l-0.6-0.6v-0.6l-0.6-0.6v-0.6l-0.6-0.6h-0.6l-4.2-0.6h-0.6v-0.6h-0.6h-0.6h-0.6h-0.6h-0.6h-0.6l-1.2-0.6
	l-0.6-0.6v-0.6l-2.4-10.8c0-0.6,0-1.2-0.6-1.8c0,0-0.6,0-1.2,0l-1.2-0.6h-1.8v7.8L306.5-273.7z"/>
<path id="rect3000" class="st1" d="M306.5-144h575c0.1,0.1,0,282.3,0,412.5c0,13.8-11.2,25-25,25h-525c-13.9,0-25-11.2-25-25
	C306.6,268.5,306.5-144,306.5-144L306.5-144z"/>
<g id="text3771" transform="translate(6.4257813e-7,-0.66808414)">
	<path id="path3776" class="st1" d="M473.7-180.8v-42l-13.8,42l-14-42v42h-10.7v-74.8h10.7l14,42l13.8-42h10.8v74.8H473.7"/>
	<path id="path3778" class="st1" d="M498.9-180.8v-74.8h10.5v74.8H498.9"/>
	<path id="path3780" class="st1" d="M557.8-180.8l-23.1-50.1v50.1h-10.7v-74.8h10.7l20.5,44.9v-44.9h10.7v74.8H557.8"/>
	<path id="path3782" class="st1" d="M614-180.8l-23.1-50.1v50.1h-10.7v-74.8h10.7l20.5,44.9v-44.9h10.7v74.8H614"/>
	<path id="path3784" class="st1" d="M636.5-180.8v-74.8h35.2v10.5h-24.4v18.9h15.5v10.3h-15.5v24.7h27.3v10.5H636.5"/>
	<path id="path3786" class="st1" d="M723.1-201.3c0,3.1-0.6,5.9-1.7,8.6c-1,2.6-2.5,4.9-4.5,6.8c-1.9,1.9-4.1,3.5-6.6,4.7
		c-2.5,1.1-5.1,1.7-8,1.7c-3.3,0-6.2-0.6-8.8-1.9c-2.6-1.3-4.8-3-6.6-5.1s-3.2-4.7-4.1-7.5c-1-2.8-1.5-5.8-1.5-8.8h10.5
		c0,1.6,0.2,3.1,0.6,4.7c0.4,1.5,1.1,2.9,1.9,4.1c0.9,1.2,2,2.2,3.2,2.9c1.3,0.7,2.9,1.1,4.8,1.1c1.4,0,2.8-0.3,4-0.9
		c1.3-0.6,2.5-1.4,3.3-2.5c1-1,1.7-2.2,2.2-3.6c0.6-1.4,0.9-2.9,0.9-4.4c0-2.2-0.4-4.1-1.3-5.7c-0.9-1.7-2.5-3.4-4.7-5.1
		c-0.4-0.4-0.5-0.6-0.4-0.6c0.1-0.1-0.1-0.3-0.7-0.7c-0.5-0.4-1.6-1.1-3.3-2.1c-1.6-1.1-4.4-3-8.1-5.6c-3.1-2.1-5.4-4.5-6.9-7.3
		c-1.5-2.8-2.2-5.9-2.2-9.3c0-2.7,0.5-5.2,1.5-7.5c1-2.4,2.3-4.5,4-6.2c1.8-1.8,3.8-3.2,6.1-4.1c2.3-1,4.8-1.6,7.5-1.6
		c2.7,0,5.1,0.5,7.4,1.5c2.3,1,4.3,2.3,5.9,4c1.7,1.7,3.1,3.8,4,6.1c1,2.4,1.6,5,1.7,7.8h-10.3c-0.1-2.6-1-4.7-2.7-6.2
		c-1.6-1.6-3.6-2.3-6-2.3c-2.5,0-4.5,0.8-6.2,2.5c-1.7,1.6-2.6,3.7-2.6,6.1c0,1.9,0.5,3.4,1.5,4.7c1,1.3,2.8,2.7,5.6,4.2
		c7.2,4.2,12.5,8.4,15.7,12.7C721.5-211.6,723.1-206.7,723.1-201.3"/>
	<path id="path3788" class="st1" d="M776.2-218.3c0,5.7-0.3,10.6-1,14.6c-0.6,4-1.7,7.8-3.2,11.4c-1.9,4.5-4.2,7.7-7,9.8
		c-2.8,2-6.2,3-10.5,3c-4.5,0-8.1-1-10.9-3c-2.8-2.1-5.1-5.4-6.9-9.8c-1.6-3.6-2.7-7.4-3.3-11.4c-0.6-4-0.9-8.9-0.9-14.6
		c0-5.7,0.3-10.5,0.9-14.5c0.7-4.1,1.8-7.9,3.3-11.5c1.9-4.5,4.3-7.7,7-9.6c2.8-2,6.4-3,10.8-3c4.3,0,7.8,1,10.6,3
		c2.8,1.9,5.1,5.2,6.9,9.8c0.7,1.9,1.4,3.7,1.9,5.6c0.6,1.9,1,3.8,1.3,5.9c0.4,2,0.6,4.2,0.8,6.6
		C776.2-223.7,776.2-221.2,776.2-218.3 M766-218.3c0-2.1-0.1-4-0.2-5.7c-0.1-1.7-0.2-3.3-0.4-4.7c-0.1-1.5-0.4-2.9-0.7-4.2
		c-0.3-1.3-0.6-2.7-1-4c-1-3.3-2.2-5.8-3.7-7.3c-1.4-1.5-3.2-2.2-5.5-2.2c-4.6,0-7.8,3.1-9.5,9.3c-0.9,2.8-1.5,5.7-1.9,8.6
		c-0.3,2.8-0.4,6.3-0.4,10.5c0,2,0,3.9,0.1,5.6c0.1,1.6,0.3,3.2,0.4,4.7c0.2,1.4,0.5,2.8,0.8,4.2c0.3,1.4,0.6,2.9,1,4.4
		c1.7,6.2,4.9,9.3,9.5,9.3c2.2,0,4.1-0.7,5.5-2.2c1.5-1.5,2.7-3.8,3.7-7c0.4-1.5,0.8-2.9,1.1-4.2c0.3-1.4,0.5-2.9,0.7-4.4
		c0.2-1.5,0.4-3.1,0.4-4.7C765.9-214.2,766-216.2,766-218.3"/>
	<path id="path3790" class="st1" d="M808-245.7v64.8h-10.8v-64.8h-13.6v-9.9h38.1v9.9H808"/>
	<path id="path3792" class="st1" d="M861.1-180.8l-5.2-20.4h-16.1l-4.9,20.4h-10.8l18.6-74.8h10.5l18.6,74.8H861.1 M847.7-233.3
		l-5.2,21.5h10.7L847.7-233.3"/>
</g>
<g id="text3794">
	<path id="path4641" class="st2" d="M571.5,118.6c0,11.4-2.4,22.3-7.1,32.5c-4.5,10.2-10.7,19.2-18.7,26.9
		c-7.7,7.7-16.7,13.8-26.9,18.3c-10.2,4.5-21,6.7-32.5,6.7c-11.4,0-22.3-2.2-32.5-6.7c-10.2-4.5-19.3-10.6-27.2-18.3
		c-7.7-7.7-13.9-16.7-18.7-26.9c-4.5-10.2-6.7-21-6.7-32.5c0-11.9,2.5-22.6,7.5-32.1c5-9.7,12.1-18.3,21.3-25.7
		c-12.2-12.9-18.3-28.1-18.3-45.5c0-9.7,2-18.8,6-27.2c4-8.7,9.3-16.3,16-22.8c7-6.7,14.9-11.9,23.9-15.7c9-3.7,18.5-5.6,28.7-5.6
		c10,0,19.5,1.9,28.7,5.6c9.2,3.7,17.2,9,23.9,15.7c7,6.5,12.4,14.1,16.4,22.8c4.2,8.5,6.3,17.5,6.3,27.2c0,8.7-1.7,16.9-5.2,24.6
		c-3.2,7.5-8,14.4-14.2,20.9c9.7,7.5,16.9,16.2,21.6,26.1C569,96.6,571.5,107.2,571.5,118.6 M521.5,14.2C521.5,6,518-1,511.1-6.7
		c-6.7-6-14.9-9-24.6-9c-9.7,0-18,3-25,9C454.7-1,451.4,6,451.4,14.2c0,7.5,3.4,13.9,10.1,19.4c7,5.2,15.3,7.8,25,7.8
		c9.7,0,17.9-2.6,24.6-7.8C518,28.1,521.5,21.6,521.5,14.2 M532,119.4c0-5.2-1.2-10.1-3.7-14.6c-2.5-4.7-5.8-8.7-10.1-11.9
		c-4-3.5-8.7-6.2-14.2-8.2c-5.5-2-11.3-3-17.5-3c-6.2,0-12.1,1-17.5,3c-5.2,2-10,4.7-14.2,8.2c-4,3.2-7.2,7.2-9.7,11.9
		c-2.2,4.5-3.4,9.3-3.4,14.6c0,6,1.1,11.6,3.4,16.8c2.5,5.2,5.7,9.8,9.7,13.8c4.2,4,9,7.1,14.2,9.3c5.5,2.2,11.3,3.4,17.5,3.4
		c6.2,0,12.1-1.1,17.5-3.4c5.7-2.2,10.6-5.3,14.6-9.3c4.2-4,7.5-8.6,9.7-13.8C530.7,131,532,125.4,532,119.4"/>
	<path id="path4643" class="st2" d="M785.6,116c0,12.7-2.1,24.4-6.3,35.1c-4.2,10.7-10.2,19.9-17.9,27.6
		c-7.5,7.5-16.5,13.4-27.2,17.9c-10.4,4.2-22,6.3-34.7,6.3c-10.2,0-19.8-1.6-28.7-4.9c-8.7-3.2-16.8-7.7-24.3-13.4
		c-7.2-5.7-13.4-12.7-18.7-20.9c-5.2-8.2-9.1-17.4-11.6-27.6L655,125c3,12.2,8.5,21.5,16.4,28c8,6.5,17.9,9.7,29.9,9.7
		c6.7,0,12.8-1.1,18.3-3.4c5.5-2.2,10.1-5.2,13.8-9c4-4,7.1-8.6,9.3-13.8c2.2-5.5,3.4-11.4,3.4-17.9c0-6.5-1.2-12.6-3.7-18.3
		c-2.5-5.7-6-10.2-10.4-13.4c-1.5-1-2.9-1.7-4.1-2.2c-1-0.7-2.4-1.2-4.1-1.5c-1.5-0.2-3.6-0.5-6.3-0.7c-2.5-0.2-6.1-0.5-10.8-0.7
		h-4.5V41.4v1.1h1.1h0.7h7.8c8,0,14.1-2.1,18.3-6.3c4.2-4.2,6.3-10.3,6.3-18.3c0-9.7-3.5-17.7-10.4-23.9c-6.7-6.5-15.2-9.7-25.4-9.7
		c-16.7,0-29.2,8.2-37.7,24.6L625.9-4.9c6.5-15.9,16.2-28.4,29.1-37.3c13.2-9.2,28-13.8,44.4-13.8c10.4,0,20.3,2,29.5,6
		c9.5,4,17.7,9.5,24.6,16.4c7,7,12.4,15.2,16.4,24.6c4,9.2,6,19,6,29.5c0,7.5-1,14.2-3,20.1c-2,6-5.7,12.9-11.2,20.9
		c4.7,4.2,8.6,8.3,11.6,12.3c3,3.7,5.3,7.7,7.1,11.9c2,4.2,3.4,8.8,4.1,13.8C785.3,104.3,785.6,109.8,785.6,116"/>
</g>
</svg>
