<?xml version="1.0" encoding="utf-8"?>
<!-- Generator: Adobe Illustrator 19.1.0, SVG Export Plug-In . SVG Version: 6.00 Build 0)  -->
<svg version="1.1" id="svg3279" xmlns:svg="http://www.w3.org/2000/svg"
	 xmlns="http://www.w3.org/2000/svg" xmlns:xlink="http://www.w3.org/1999/xlink" x="0px" y="0px"
	 viewBox="744.5 -326.7 1055.3 640.9" style="enable-background:new 744.5 -326.7 1055.3 640.9;" xml:space="preserve">
<style type="text/css">
	.st0{fill:#800000;}
</style>
<g id="layer1" transform="translate(235.31987,-116.92913)">
	<path id="MT_At-Large" class="st0" d="M531.3-209.8L509.1-82.7c1.5,5,5.8,9.2,8,14.1c0.9,4.5,7.2,6.1,6.7,10.8
		c-0.7,4.1,0.1,7.5,4.4,8.9c-2.1,3.7,3.3,4.6,3.9,7.5c-1.1,3.6-1.6,7.1,1.1,10.2c0.9,5-2.7,6.3-5.9,8.5c1.9,3.9,4.6,7.8,5.9,11.8
		c0.8,5-8,1.1-6.5,3.5c4.2,2.9,4.5,8.2,9.3,8.3c3.7,2.6,3.9,7,4.7,11.1c4.6,2.5,9,5.4,14,6.8c3.2,0.6,4,5.6,4.7,8.1
		c-3.3,4.6,4.5,1.1,2.4,6.5c2,2.4,6.1,3.7,6.6,7.7c1.1,5.6,7.4,8.7,6.6,14.3c-1.3,7,5.6,3.5,6.5,8.9c0.2,4.7,6.3,2.2,3.7,6.8
		c-1.8,4.9-1.6,10,3,12.9c1.7,3.5,5.5,3.5,7.5,5.4c4.8,3.2-4.5,11.1,3.5,8.1c0-3.1,5.5-3.3,7.2-0.3c2.8,1.7,2.5,8.6-0.5,7.8
		c1.5,6,7.1,3.9,11.7,5.6c3.3,3.3,3.9-4,7.9-2.1c5.6-2,11.5,3,7.4,8.9c-2.8,4.2-1.1,13.3-6.7,14.4c-4.7-0.2-0.7,6-1.2,9
		c-2.3,3.2-6.6,5.3-5.5,10.5c-1.6,3.6-1.1,10.2-6.6,9.6c1.9,2.7,2.9,5.5,1.5,8.6c0.5,3.7-4.9,5.6-7.3,3c-4.1,3.4,2.1,4.8,3.4,7.4
		c1.3,4.1-1.6,6.5-3.1,9c0.5,5.1,6,7.9,4.2,13.3c-0.1,3.9,3.5,11.1-2.1,12.3c-5.3-0.5-9.7-1.6-11.4,4.6c-4.6,2.2-1.4,5.4,0.4,8.4
		c2.7,3.3,1.3,11.2-3,11.6c-6.2-1.6,0.8,4.6-2.8,6.5c-3.6,3.1,4.7,2,6.5,3.1c2.5,3.7,6.7,13.8,10.4,14.7c5.9-0.3,6.4-6.7,8.1-8.7
		c3.4-0.8,8.6,1.6,10.6-1.3c2.1-3.5,5.6-2,5.7-6.6c2.6-2,7.6-2.5,6.3-6.8c-0.2-3.4,7-4,8.3-0.4c3.6,2.1,2.6,7,4.2,10
		c3.3,0.7,7.6,0.4,7.5,4.9c1.6,2.7-5.4,7.7-1.9,8.5c7-0.8,2.7,8,2.4,12c-2.3,3.4,3.4,6.1,2,9.3c-2.4,3.2-1.9,6.2,0.7,9.1
		c2.6,4.4,0.2,7.8,4.8,11.9c5.4,2.7,2,10.4,5.6,13c5.1,0.5,4.2,3.1,4.3,6.3c3.8,2.4,4.3,6.7,4.9,10.8c-1.7,2.7-0.4,9.3-4.7,8.5
		c-4.2-0.9,0.4,8,1.4,10.4c2.3,2.7,7.9,3.7,7.1,7.9c-0.1,4,6-1.6,8.5-1.7c3.8,3.3,9.6,6.2,11.4,10.3c0.1,3.5,3.6,9.6,4.2,15.1
		c2.6,4-2.5,5.5-2,8.3c2.4,4.5,3.5,9.4,3.4,14.5c-0.9,5.2,4,8.6,8,10.9c3.9-0.5,2,8.6,5.6,5.5c4.2-1.7-4.2-6,0.3-8.5
		c2.1-4.6,7-5.9,11.2-8c5.1,0.1,10.7,4.5,16.6,4.4c2.9,1.7,5.3,2.7,8.9,3.1c3.3,2.9,6.2,4.2,8-0.6c0.3-4,0-6.5,4.3-6.8
		c1.6-3.8,6-2.8,9.1-2.5c1.1,4.3,4.2,5.3,8.3,4.5c2.5,4.7,6.9,2.2,12.8,1.7c7.2-0.7,14.5-3.3,16.7,5.6c4.9-1.2,9.4-4.5,14.6-3.5
		c4.9,0.8,10.8-0.8,14.2,3.6c-3-4.1-2.3-8.7,1.6-13c3.4-2.1-1.4-9.2,4-8.3c5.3,0.7,6.4-1.6,8.7-5.3c3.6,3.5,8,6.3,9.6,11.4
		c1.2,3.4,4.5,6.6,4.2,10.1c-2.1,3.7,3.5,5.9,5.2,8.8c2.6,3.2-0.4,9.1,6.3,9.1c1.4,0.5,0.7-0.5,0.9-1.4c1.4-22.1,4.1-44.1,7.2-66
		c220.7,23.7,364.3,39.4,643,51.7c8.6-174.8,15.5-334.3,22.3-516.1C1106-121.4,887-155.9,531.3-209.8z"/>
</g>
</svg>
