<?xml version="1.0" standalone="no"?><!DOCTYPE svg PUBLIC "-//W3C//DTD SVG 1.1//EN" "http://www.w3.org/Graphics/SVG/1.1/DTD/svg11.dtd"><svg class="keen-logo" height="32" width="148" version="1.1" x="0px" y="0px" viewBox="0 0 594 256" enable-background="new 0 0 594 128" xml:space="preserve" xmlns="http://www.w3.org/2000/svg" xmlns:xlink="http://www.w3.org/1999/xlink" style="border-bottom-color:rgb(0, 0, 238);border-left-color:rgb(0, 0, 238);border-right-color:rgb(0, 0, 238);border-top-color:rgb(0, 0, 238);color:rgb(0, 0, 238);height:32px;margin-top:15px;outline-color:rgb(0, 0, 238);width:148px;column-rule-color:rgb(0, 0, 238);perspective-origin:74px 16px;-webkit-text-emphasis-color:rgb(0, 0, 238);-webkit-text-fill-color:rgb(0, 0, 238);-webkit-text-stroke-color:rgb(0, 0, 238);transform-origin:74px 16px;">
        <g class="icon" style="border-bottom-color:rgb(0, 0, 238);border-left-color:rgb(0, 0, 238);border-right-color:rgb(0, 0, 238);border-top-color:rgb(0, 0, 238);color:rgb(0, 0, 238);height:auto;outline-color:rgb(0, 0, 238);overflow-x:visible;overflow-y:visible;width:auto;column-rule-color:rgb(0, 0, 238);perspective-origin:0px 0px;-webkit-text-emphasis-color:rgb(0, 0, 238);-webkit-text-fill-color:rgb(0, 0, 238);-webkit-text-stroke-color:rgb(0, 0, 238);transform-origin:0px 0px;">
          <polygon fill="#fe6672" points="59.811,73.135 66.859,85.34 49.275,115.863 140.807,115.863 147.814,128 28.045,128" style="border-bottom-color:rgb(0, 0, 238);border-left-color:rgb(0, 0, 238);border-right-color:rgb(0, 0, 238);border-top-color:rgb(0, 0, 238);color:rgb(0, 0, 238);height:auto;outline-color:rgb(0, 0, 238);overflow-x:visible;overflow-y:visible;width:auto;column-rule-color:rgb(0, 0, 238);perspective-origin:0px 0px;-webkit-text-emphasis-color:rgb(0, 0, 238);-webkit-text-fill-color:rgb(0, 0, 238);-webkit-text-stroke-color:rgb(0, 0, 238);transform-origin:0px 0px;fill:rgb(254, 102, 114);"/>
          <polygon fill="#00cfbb" points="59.873,24.297 91.504,79.242 77.413,79.242 59.826,48.781 13.958,128 0,128" style="border-bottom-color:rgb(0, 0, 238);border-left-color:rgb(0, 0, 238);border-right-color:rgb(0, 0, 238);border-top-color:rgb(0, 0, 238);color:rgb(0, 0, 238);height:auto;outline-color:rgb(0, 0, 238);overflow-x:visible;overflow-y:visible;width:auto;column-rule-color:rgb(0, 0, 238);perspective-origin:0px 0px;-webkit-text-emphasis-color:rgb(0, 0, 238);-webkit-text-fill-color:rgb(0, 0, 238);-webkit-text-stroke-color:rgb(0, 0, 238);transform-origin:0px 0px;fill:rgb(0, 207, 187);"/>
          <polygon fill="#00bbde" points="133.769,103.674 70.364,103.674 77.418,91.432 112.586,91.432 66.915,12.1 73.9,0" style="border-bottom-color:rgb(0, 0, 238);border-left-color:rgb(0, 0, 238);border-right-color:rgb(0, 0, 238);border-top-color:rgb(0, 0, 238);color:rgb(0, 0, 238);height:auto;outline-color:rgb(0, 0, 238);overflow-x:visible;overflow-y:visible;width:auto;column-rule-color:rgb(0, 0, 238);perspective-origin:0px 0px;-webkit-text-emphasis-color:rgb(0, 0, 238);-webkit-text-fill-color:rgb(0, 0, 238);-webkit-text-stroke-color:rgb(0, 0, 238);transform-origin:0px 0px;fill:rgb(0, 187, 222);"/>
        </g>
        <path class="text-2" fill="#C3CCD5" d="M246.12 94.163L216.29 57.373l27.704-27.484c1.199-1.195 1.782-2.475 1.782-3.91 0-2.906-2.496-5.453-5.341-5.453 -1.869 0-3.128 0.887-4.262 1.896l-43.89 44.996V26.094c0-3.07-2.498-5.568-5.568-5.568 -2.96 0-5.461 2.549-5.461 5.568v72.01c0 3.02 2.501 5.57 5.461 5.57 3.07 0 5.568-2.498 5.568-5.57V81.145l16.181-16.178 29.093 36.231c1.15 1.643 2.655 2.477 4.474 2.477 3.021 0 5.573-2.551 5.573-5.57C247.604 96.301 246.896 95.151 246.12 94.163zM309.211 71.702c0-15.379-9.767-30.948-28.434-30.948 -16.456 0-29.348 13.941-29.348 31.743v0.23c0 18.1 13.108 31.748 30.49 31.748 9.265 0 16.353-2.836 22.95-9.162 1.104-0.967 1.713-2.248 1.713-3.609 0-2.631-2.192-4.771-4.887-4.771 -1.466 0-2.503 0.719-3.195 1.293 -4.886 4.5-10.083 6.596-16.354 6.596 -10.378 0-18.167-7.188-19.675-18.006h41.627C306.917 76.815 309.211 74.52 309.211 71.702zM280.55 50.182c11.501 0 16.667 9.162 17.751 18.117h-35.831C263.956 57.574 271.266 50.182 280.55 50.182zM374.018 71.702c0-15.379-9.767-30.948-28.434-30.948 -16.454 0-29.344 13.941-29.344 31.743v0.23c0 18.1 13.107 31.748 30.486 31.748 9.263 0 16.351-2.836 22.95-9.164 1.103-0.965 1.71-2.246 1.71-3.607 0-2.631-2.193-4.771-4.889-4.771 -1.464 0-2.501 0.719-3.193 1.293 -4.886 4.5-10.082 6.596-16.352 6.596 -10.374 0-18.163-7.189-19.677-18.006h41.626C371.723 76.815 374.018 74.52 374.018 71.702zM345.357 50.182c11.497 0 16.662 9.162 17.749 18.117h-35.83C328.762 57.574 336.072 50.182 345.357 50.182zM414.734 40.754c-8.037 0-14.492 3.127-19.233 9.309V46.9c0-3.062-2.396-5.461-5.455-5.461 -2.945 0-5.342 2.449-5.342 5.461v51.319c0 3.059 2.396 5.455 5.455 5.455 3.045 0 5.342-2.346 5.342-5.455V68.271c0-10.312 6.874-17.514 16.717-17.514 9.606 0 15.342 6.291 15.342 16.826v30.635c0 3.059 2.398 5.455 5.461 5.455 2.999 0 5.348-2.396 5.348-5.455V65.414C438.369 50.434 429.092 40.754 414.734 40.754zM491.424 20.525c-2.958 0-5.457 2.549-5.457 5.568v72.01c0 3.02 2.499 5.57 5.457 5.57 3.072 0 5.572-2.498 5.572-5.57v-72.01C496.996 23.023 494.496 20.525 491.424 20.525zM552.307 19.725c-23.504 0-41.916 18.613-41.916 42.373v0.229c0 24.03 17.923 42.149 41.689 42.149 23.507 0 41.92-18.613 41.92-42.377v-0.227C594 37.844 576.076 19.725 552.307 19.725zM582.627 62.098v0.229c0 18.133-13.035 31.807-30.32 31.807 -17.411 0-30.541-13.773-30.541-32.036v-0.227c0-18.131 13.032-31.803 30.314-31.803C569.209 30.068 582.627 44.137 582.627 62.098z" style="border-bottom-color:rgb(0, 0, 238);border-left-color:rgb(0, 0, 238);border-right-color:rgb(0, 0, 238);border-top-color:rgb(0, 0, 238);color:rgb(0, 0, 238);height:auto;outline-color:rgb(0, 0, 238);overflow-x:visible;overflow-y:visible;width:auto;column-rule-color:rgb(0, 0, 238);perspective-origin:0px 0px;-webkit-text-emphasis-color:rgb(0, 0, 238);-webkit-text-fill-color:rgb(0, 0, 238);-webkit-text-stroke-color:rgb(0, 0, 238);transform-origin:0px 0px;fill:rgb(195, 204, 213);d:path('M 246.12 94.163 L 216.29 57.373 l 27.704 -27.484 c 1.199 -1.195 1.782 -2.475 1.782 -3.91 c 0 -2.906 -2.496 -5.453 -5.341 -5.453 c -1.869 0 -3.128 0.887 -4.262 1.896 l -43.89 44.996 V 26.094 c 0 -3.07 -2.498 -5.568 -5.568 -5.568 c -2.96 0 -5.461 2.549 -5.461 5.568 v 72.01 c 0 3.02 2.501 5.57 5.461 5.57 c 3.07 0 5.568 -2.498 5.568 -5.57 V 81.145 l 16.181 -16.178 l 29.093 36.231 c 1.15 1.643 2.655 2.477 4.474 2.477 c 3.021 0 5.573 -2.551 5.573 -5.57 C 247.604 96.301 246.896 95.151 246.12 94.163 Z M 309.211 71.702 c 0 -15.379 -9.767 -30.948 -28.434 -30.948 c -16.456 0 -29.348 13.941 -29.348 31.743 v 0.23 c 0 18.1 13.108 31.748 30.49 31.748 c 9.265 0 16.353 -2.836 22.95 -9.162 c 1.104 -0.967 1.713 -2.248 1.713 -3.609 c 0 -2.631 -2.192 -4.771 -4.887 -4.771 c -1.466 0 -2.503 0.719 -3.195 1.293 c -4.886 4.5 -10.083 6.596 -16.354 6.596 c -10.378 0 -18.167 -7.188 -19.675 -18.006 h 41.627 C 306.917 76.815 309.211 74.52 309.211 71.702 Z M 280.55 50.182 c 11.501 0 16.667 9.162 17.751 18.117 h -35.831 C 263.956 57.574 271.266 50.182 280.55 50.182 Z M 374.018 71.702 c 0 -15.379 -9.767 -30.948 -28.434 -30.948 c -16.454 0 -29.344 13.941 -29.344 31.743 v 0.23 c 0 18.1 13.107 31.748 30.486 31.748 c 9.263 0 16.351 -2.836 22.95 -9.164 c 1.103 -0.965 1.71 -2.246 1.71 -3.607 c 0 -2.631 -2.193 -4.771 -4.889 -4.771 c -1.464 0 -2.501 0.719 -3.193 1.293 c -4.886 4.5 -10.082 6.596 -16.352 6.596 c -10.374 0 -18.163 -7.189 -19.677 -18.006 h 41.626 C 371.723 76.815 374.018 74.52 374.018 71.702 Z M 345.357 50.182 c 11.497 0 16.662 9.162 17.749 18.117 h -35.83 C 328.762 57.574 336.072 50.182 345.357 50.182 Z M 414.734 40.754 c -8.037 0 -14.492 3.127 -19.233 9.309 V 46.9 c 0 -3.062 -2.396 -5.461 -5.455 -5.461 c -2.945 0 -5.342 2.449 -5.342 5.461 v 51.319 c 0 3.059 2.396 5.455 5.455 5.455 c 3.045 0 5.342 -2.346 5.342 -5.455 V 68.271 c 0 -10.312 6.874 -17.514 16.717 -17.514 c 9.606 0 15.342 6.291 15.342 16.826 v 30.635 c 0 3.059 2.398 5.455 5.461 5.455 c 2.999 0 5.348 -2.396 5.348 -5.455 V 65.414 C 438.369 50.434 429.092 40.754 414.734 40.754 Z M 491.424 20.525 c -2.958 0 -5.457 2.549 -5.457 5.568 v 72.01 c 0 3.02 2.499 5.57 5.457 5.57 c 3.072 0 5.572 -2.498 5.572 -5.57 v -72.01 C 496.996 23.023 494.496 20.525 491.424 20.525 Z M 552.307 19.725 c -23.504 0 -41.916 18.613 -41.916 42.373 v 0.229 c 0 24.03 17.923 42.149 41.689 42.149 c 23.507 0 41.92 -18.613 41.92 -42.377 v -0.227 C 594 37.844 576.076 19.725 552.307 19.725 Z M 582.627 62.098 v 0.229 c 0 18.133 -13.035 31.807 -30.32 31.807 c -17.411 0 -30.541 -13.773 -30.541 -32.036 v -0.227 c 0 -18.131 13.032 -31.803 30.314 -31.803 C 569.209 30.068 582.627 44.137 582.627 62.098 Z');"/>
      </svg>