<svg xmlns="http://www.w3.org/2000/svg" viewBox="0 0 145.15 36"><title>logo</title><g id="Layer_2" data-name="Layer 2"><g id="Background"><path d="M127.65,9.11a8.68,8.68,0,0,1,3.12-2.05,10.6,10.6,0,0,1,3.6-.59,9.67,9.67,0,0,1,3.17.52,15.17,15.17,0,0,1,2.78,1.26,19.74,19.74,0,0,1,2.26,1.52c.66.52,1.22,1,1.65,1.33h.92V2.87q-.9-.44-2.35-1a24.66,24.66,0,0,0-2.69-1,27.54,27.54,0,0,0-3.3-.65A29.21,29.21,0,0,0,132.92,0l-.59,0H88.66L91,6.87h10.77v29h9.07v-29h7.51A18.78,18.78,0,0,0,115.2,18q0,8.5,4.78,13.2t12.91,4.69A25.43,25.43,0,0,0,137,35.6a30.92,30.92,0,0,0,3.18-.74,22.12,22.12,0,0,0,2.69-1l2.3-1V24.77h-.83q-.68.58-1.6,1.32a17.9,17.9,0,0,1-2.14,1.46,13.59,13.59,0,0,1-2.74,1.26,10.29,10.29,0,0,1-3.42.57A10.79,10.79,0,0,1,131,28.8a8.6,8.6,0,0,1-3.14-1.87,9.79,9.79,0,0,1-2.35-3.53,14.31,14.31,0,0,1-.9-5.41,14.79,14.79,0,0,1,.86-5.3A9.71,9.71,0,0,1,127.65,9.11Z" fill="#fff"/><path d="M76.92,0,70.37,19.28a13.92,13.92,0,0,1,1.34,8.16,12,12,0,0,1-7.63,8.47h9.72l2.26-7.33H87.42l2.26,7.33H99L86.82,0Zm1.14,22.06,3.69-11.84,3.69,11.84Z" fill="#fff"/><path d="M69.16,29.69a10.38,10.38,0,0,0,1-4.71,8.22,8.22,0,0,0-2-5.83,9.88,9.88,0,0,0-5.36-2.86v-.19a7.74,7.74,0,0,0,3.65-3,8.46,8.46,0,0,0,1.32-4.69,8.18,8.18,0,0,0-1-4,6.92,6.92,0,0,0-2.9-2.78A11.56,11.56,0,0,0,60.07.33,44.36,44.36,0,0,0,54,0H41.28V36H55.74a23.51,23.51,0,0,0,6.2-.68,12.67,12.67,0,0,0,4.48-2.27A9.63,9.63,0,0,0,69.16,29.69ZM50.3,6.62h.63c1.62,0,2.83,0,3.65,0a5.75,5.75,0,0,1,2.12.42,2.7,2.7,0,0,1,1.4,1.33,4.06,4.06,0,0,1,.45,1.79,4.89,4.89,0,0,1-.41,2.08,2.91,2.91,0,0,1-1.51,1.4,5.21,5.21,0,0,1-1.93.51q-.94,0-3.27,0H50.3Zm10,20.53a3.6,3.6,0,0,1-1.81,1.56,7.71,7.71,0,0,1-2.77.65c-.9,0-2.54,0-4.9,0H50.3v-9H52c1.62,0,2.91,0,3.87,0a7.05,7.05,0,0,1,2.27.35,4.1,4.1,0,0,1,2,1.43,4.37,4.37,0,0,1,.68,2.61A4.69,4.69,0,0,1,60.26,27.14Z" fill="#fff"/><path d="M35.69,35.9V0H4S0-.5,0,4.18V35.92Z" fill="#a3271c"/><path d="M27.46,30.39H13.75a.77.77,0,0,1-.77-.74L12.93,28h-5a.77.77,0,0,1-.77-.77V14.69l-.79.74a.77.77,0,0,1-1-1.12l1.84-1.72v-6A.77.77,0,0,1,7.9,5.8h2.41a.77.77,0,0,1,.77.77v1a.77.77,0,1,1-1.53,0v-.2H8.67v3.82L14.17,6a.77.77,0,0,1,1,0L18.84,9.3,20.4,7.92a.77.77,0,0,1,1,0l9,8.31a.77.77,0,0,1-.52,1.33H28.22V29.62A.77.77,0,0,1,27.46,30.39Zm-13-1.53h12.2V16.8a.77.77,0,0,1,.77-.77h.46l-7-6.51-.92.81,3.94,3.58a.77.77,0,0,1-.51,1.33h-1v9.66a.77.77,0,0,1-.77.77H13.2a.77.77,0,0,1-.77-.77V17.57h-.92A.77.77,0,0,1,11,16.23l6.68-5.91-3-2.7-6,5.64V26.49h5a.77.77,0,0,1,.77.74ZM14,24.14h7V14.48a.77.77,0,0,1,.54-.73l-2.63-2.39-5.35,4.73a.77.77,0,0,1,.49.72Z" fill="#fff"/></g></g></svg>